<svg xmlns="http://www.w3.org/2000/svg" xmlns:xlink="http://www.w3.org/1999/xlink" width="500" zoomAndPan="magnify" viewBox="0 0 375 374.999991" height="500" preserveAspectRatio="xMidYMid meet" version="1.0"><defs><g/><clipPath id="302a8195e8"><path d="M 15.316406 211.445312 L 224.746094 211.445312 L 224.746094 215.195312 L 15.316406 215.195312 Z M 15.316406 211.445312 " clip-rule="nonzero"/></clipPath><clipPath id="b9d696e628"><path d="M 0.316406 0.445312 L 209.746094 0.445312 L 209.746094 4.195312 L 0.316406 4.195312 Z M 0.316406 0.445312 " clip-rule="nonzero"/></clipPath><clipPath id="b87864ea05"><rect x="0" width="210" y="0" height="5"/></clipPath><clipPath id="3461c8e571"><rect x="0" width="360" y="0" height="52"/></clipPath><clipPath id="8f7776b334"><rect x="0" width="154" y="0" height="38"/></clipPath></defs><g clip-path="url(#302a8195e8)"><g transform="matrix(1, 0, 0, 1, 15, 211)"><g clip-path="url(#b87864ea05)"><g clip-path="url(#b9d696e628)"><path fill="#000000" d="M 0.316406 0.445312 L 209.742188 0.445312 L 209.742188 4.195312 L 0.316406 4.195312 Z M 0.316406 0.445312 " fill-opacity="1" fill-rule="nonzero"/></g></g></g></g><g transform="matrix(1, 0, 0, 1, 12, 151)"><g clip-path="url(#3461c8e571)"><g fill="#000000" fill-opacity="1"><g transform="translate(0.36478, 38.749457)"><g><path d="M 38.625 -32.21875 L 41.6875 -5.484375 C 41.757812 -4.972656 41.851562 -4.410156 41.96875 -3.796875 C 42.09375 -3.179688 42.304688 -2.609375 42.609375 -2.078125 C 42.921875 -1.546875 43.382812 -1.175781 44 -0.96875 C 44.644531 -0.769531 45.234375 -0.648438 45.765625 -0.609375 C 46.296875 -0.578125 46.679688 -0.5625 46.921875 -0.5625 C 47.160156 -0.5625 47.28125 -0.457031 47.28125 -0.25 C 47.28125 0.0195312 46.972656 0.15625 46.359375 0.15625 C 46.117188 0.15625 45.664062 0.144531 45 0.125 C 44.332031 0.113281 43.585938 0.0976562 42.765625 0.078125 C 41.941406 0.0546875 41.15625 0.03125 40.40625 0 C 39.65625 -0.03125 39.078125 -0.0664062 38.671875 -0.109375 C 38.117188 -0.171875 37.765625 -0.234375 37.609375 -0.296875 C 37.460938 -0.367188 37.390625 -0.457031 37.390625 -0.5625 C 37.390625 -0.769531 37.492188 -0.890625 37.703125 -0.921875 C 37.835938 -0.953125 37.921875 -1.113281 37.953125 -1.40625 C 37.984375 -1.695312 37.96875 -2.046875 37.90625 -2.453125 L 35.75 -24.484375 L 35.640625 -24.484375 L 24.796875 -2.25 C 24.347656 -1.289062 24.019531 -0.664062 23.8125 -0.375 C 23.613281 -0.09375 23.410156 0.046875 23.203125 0.046875 C 22.992188 0.046875 22.796875 -0.0859375 22.609375 -0.359375 C 22.421875 -0.628906 22.109375 -1.160156 21.671875 -1.953125 C 21.359375 -2.492188 20.972656 -3.207031 20.515625 -4.09375 C 20.054688 -4.976562 19.5625 -5.914062 19.03125 -6.90625 C 18.5 -7.90625 17.992188 -8.863281 17.515625 -9.78125 C 17.035156 -10.707031 16.660156 -11.457031 16.390625 -12.03125 C 16.046875 -12.71875 15.597656 -13.632812 15.046875 -14.78125 C 14.503906 -15.925781 13.925781 -17.113281 13.3125 -18.34375 C 12.695312 -19.570312 12.148438 -20.695312 11.671875 -21.71875 C 11.191406 -22.738281 10.851562 -23.472656 10.65625 -23.921875 L 10.453125 -23.921875 L 8.703125 -4.25 C 8.671875 -3.90625 8.65625 -3.546875 8.65625 -3.171875 C 8.65625 -2.796875 8.65625 -2.421875 8.65625 -2.046875 C 8.65625 -1.398438 9.015625 -0.988281 9.734375 -0.8125 C 10.109375 -0.71875 10.457031 -0.648438 10.78125 -0.609375 C 11.101562 -0.578125 11.332031 -0.5625 11.46875 -0.5625 C 11.707031 -0.5625 11.828125 -0.457031 11.828125 -0.25 C 11.828125 0.0195312 11.554688 0.15625 11.015625 0.15625 C 10.160156 0.15625 9.285156 0.128906 8.390625 0.078125 C 7.503906 0.0234375 6.976562 0 6.8125 0 C 6.601562 0 6.070312 0.0234375 5.21875 0.078125 C 4.363281 0.128906 3.628906 0.15625 3.015625 0.15625 C 2.503906 0.15625 2.25 0.0195312 2.25 -0.25 C 2.25 -0.457031 2.40625 -0.5625 2.71875 -0.5625 C 2.882812 -0.5625 3.0625 -0.578125 3.25 -0.609375 C 3.4375 -0.648438 3.703125 -0.6875 4.046875 -0.71875 C 4.796875 -0.851562 5.25 -1.257812 5.40625 -1.9375 C 5.5625 -2.625 5.6875 -3.378906 5.78125 -4.203125 L 9.0625 -32.625 C 9.132812 -33.132812 9.304688 -33.390625 9.578125 -33.390625 C 9.742188 -33.390625 9.90625 -33.347656 10.0625 -33.265625 C 10.21875 -33.179688 10.363281 -33.003906 10.5 -32.734375 L 24.125 -5.6875 L 37.234375 -32.671875 C 37.472656 -33.148438 37.710938 -33.390625 37.953125 -33.390625 C 38.296875 -33.390625 38.519531 -33 38.625 -32.21875 Z M 38.625 -32.21875 "/></g></g></g><g fill="#000000" fill-opacity="1"><g transform="translate(47.691595, 38.749457)"><g><path d="M 12.03125 -20.1875 L 12.03125 -12.5 C 12.03125 -10.414062 12.039062 -8.546875 12.0625 -6.890625 C 12.082031 -5.234375 12.140625 -3.960938 12.234375 -3.078125 C 12.304688 -2.421875 12.4375 -1.894531 12.625 -1.5 C 12.8125 -1.113281 13.226562 -0.867188 13.875 -0.765625 C 14.21875 -0.734375 14.59375 -0.691406 15 -0.640625 C 15.414062 -0.585938 15.722656 -0.5625 15.921875 -0.5625 C 16.160156 -0.5625 16.28125 -0.441406 16.28125 -0.203125 C 16.28125 0.0351562 16.046875 0.15625 15.578125 0.15625 C 14.753906 0.15625 13.914062 0.132812 13.0625 0.09375 C 12.207031 0.0625 11.488281 0.0351562 10.90625 0.015625 C 10.320312 0.00390625 10 0 9.9375 0 C 9.863281 0 9.550781 0.00390625 9 0.015625 C 8.457031 0.0351562 7.851562 0.0625 7.1875 0.09375 C 6.53125 0.132812 5.960938 0.15625 5.484375 0.15625 C 5.003906 0.15625 4.765625 0.0351562 4.765625 -0.203125 C 4.765625 -0.441406 4.882812 -0.5625 5.125 -0.5625 C 5.320312 -0.5625 5.550781 -0.585938 5.8125 -0.640625 C 6.070312 -0.691406 6.300781 -0.734375 6.5 -0.765625 C 6.945312 -0.867188 7.238281 -1.113281 7.375 -1.5 C 7.507812 -1.894531 7.613281 -2.421875 7.6875 -3.078125 C 7.789062 -3.960938 7.859375 -5.234375 7.890625 -6.890625 C 7.921875 -8.546875 7.9375 -10.414062 7.9375 -12.5 L 7.9375 -20.1875 C 7.9375 -22.4375 7.9375 -24.148438 7.9375 -25.328125 C 7.9375 -26.503906 7.925781 -27.390625 7.90625 -27.984375 C 7.894531 -28.585938 7.875 -29.109375 7.84375 -29.546875 C 7.738281 -30.953125 7.257812 -31.738281 6.40625 -31.90625 C 5.894531 -32.007812 5.429688 -32.0625 5.015625 -32.0625 C 4.773438 -32.0625 4.65625 -32.179688 4.65625 -32.421875 C 4.65625 -32.660156 4.894531 -32.78125 5.375 -32.78125 C 5.882812 -32.78125 6.476562 -32.769531 7.15625 -32.75 C 7.84375 -32.738281 8.457031 -32.722656 9 -32.703125 C 9.550781 -32.679688 9.863281 -32.671875 9.9375 -32.671875 C 10 -32.671875 10.300781 -32.679688 10.84375 -32.703125 C 11.394531 -32.722656 12.019531 -32.738281 12.71875 -32.75 C 13.425781 -32.769531 14 -32.78125 14.4375 -32.78125 C 14.914062 -32.78125 15.15625 -32.660156 15.15625 -32.421875 C 15.15625 -32.179688 15.035156 -32.0625 14.796875 -32.0625 C 14.660156 -32.0625 14.503906 -32.0625 14.328125 -32.0625 C 14.160156 -32.0625 13.941406 -32.023438 13.671875 -31.953125 C 13.054688 -31.816406 12.65625 -31.578125 12.46875 -31.234375 C 12.28125 -30.898438 12.15625 -30.335938 12.09375 -29.546875 C 12.09375 -29.109375 12.082031 -28.585938 12.0625 -27.984375 C 12.039062 -27.390625 12.03125 -26.503906 12.03125 -25.328125 C 12.03125 -24.148438 12.03125 -22.4375 12.03125 -20.1875 Z M 12.03125 -20.1875 "/></g></g></g><g fill="#000000" fill-opacity="1"><g transform="translate(67.615981, 38.749457)"><g><path d="M 29.140625 -3.4375 L 29.140625 -10.953125 C 29.140625 -12.148438 29.101562 -13.039062 29.03125 -13.625 C 28.96875 -14.207031 28.800781 -14.617188 28.53125 -14.859375 C 28.257812 -15.097656 27.816406 -15.265625 27.203125 -15.359375 C 26.722656 -15.429688 26.207031 -15.46875 25.65625 -15.46875 C 25.414062 -15.46875 25.296875 -15.585938 25.296875 -15.828125 C 25.296875 -16.066406 25.535156 -16.1875 26.015625 -16.1875 C 26.703125 -16.1875 27.445312 -16.175781 28.25 -16.15625 C 29.050781 -16.144531 29.75 -16.128906 30.34375 -16.109375 C 30.945312 -16.085938 31.28125 -16.078125 31.34375 -16.078125 C 31.414062 -16.078125 31.710938 -16.085938 32.234375 -16.109375 C 32.765625 -16.128906 33.367188 -16.144531 34.046875 -16.15625 C 34.734375 -16.175781 35.300781 -16.1875 35.75 -16.1875 C 36.226562 -16.1875 36.46875 -16.066406 36.46875 -15.828125 C 36.46875 -15.585938 36.347656 -15.46875 36.109375 -15.46875 C 35.972656 -15.46875 35.816406 -15.46875 35.640625 -15.46875 C 35.472656 -15.46875 35.253906 -15.429688 34.984375 -15.359375 C 34.367188 -15.265625 33.945312 -15.035156 33.71875 -14.671875 C 33.5 -14.316406 33.359375 -13.742188 33.296875 -12.953125 C 33.253906 -12.273438 33.234375 -11.582031 33.234375 -10.875 C 33.234375 -10.175781 33.234375 -9.367188 33.234375 -8.453125 L 33.234375 -3.578125 C 33.234375 -2.585938 33.195312 -1.988281 33.125 -1.78125 C 33.0625 -1.582031 32.894531 -1.398438 32.625 -1.234375 C 31.664062 -0.753906 30.601562 -0.367188 29.4375 -0.078125 C 28.28125 0.210938 27.144531 0.414062 26.03125 0.53125 C 24.925781 0.65625 23.929688 0.71875 23.046875 0.71875 C 21.921875 0.71875 20.507812 0.625 18.8125 0.4375 C 17.125 0.25 15.347656 -0.175781 13.484375 -0.84375 C 11.628906 -1.507812 9.863281 -2.539062 8.1875 -3.9375 C 7.269531 -4.726562 6.398438 -5.742188 5.578125 -6.984375 C 4.765625 -8.234375 4.097656 -9.648438 3.578125 -11.234375 C 3.066406 -12.828125 2.8125 -14.53125 2.8125 -16.34375 C 2.8125 -18.664062 3.160156 -20.753906 3.859375 -22.609375 C 4.566406 -24.472656 5.488281 -26.078125 6.625 -27.421875 C 7.769531 -28.773438 9.007812 -29.84375 10.34375 -30.625 C 12.363281 -31.851562 14.4375 -32.617188 16.5625 -32.921875 C 18.695312 -33.234375 20.617188 -33.390625 22.328125 -33.390625 C 23.765625 -33.390625 25.164062 -33.296875 26.53125 -33.109375 C 27.894531 -32.921875 28.800781 -32.773438 29.25 -32.671875 C 29.726562 -32.578125 30.316406 -32.476562 31.015625 -32.375 C 31.710938 -32.269531 32.332031 -32.21875 32.875 -32.21875 C 33.257812 -32.21875 33.453125 -32.082031 33.453125 -31.8125 C 33.453125 -31.5 33.40625 -30.941406 33.3125 -30.140625 C 33.226562 -29.335938 33.1875 -27.84375 33.1875 -25.65625 C 33.1875 -25.039062 33.015625 -24.734375 32.671875 -24.734375 C 32.472656 -24.734375 32.375 -24.957031 32.375 -25.40625 C 32.332031 -25.675781 32.242188 -26.09375 32.109375 -26.65625 C 31.972656 -27.21875 31.71875 -27.753906 31.34375 -28.265625 C 30.800781 -29.085938 29.664062 -29.859375 27.9375 -30.578125 C 26.21875 -31.296875 23.890625 -31.65625 20.953125 -31.65625 C 19.585938 -31.65625 18.097656 -31.507812 16.484375 -31.21875 C 14.878906 -30.925781 13.226562 -30.132812 11.53125 -28.84375 C 10.226562 -27.84375 9.15625 -26.394531 8.3125 -24.5 C 7.476562 -22.613281 7.0625 -20.40625 7.0625 -17.875 C 7.0625 -15.820312 7.351562 -13.984375 7.9375 -12.359375 C 8.519531 -10.742188 9.1875 -9.378906 9.9375 -8.265625 C 10.6875 -7.160156 11.316406 -6.351562 11.828125 -5.84375 C 13.640625 -4.164062 15.492188 -2.984375 17.390625 -2.296875 C 19.285156 -1.617188 21.273438 -1.28125 23.359375 -1.28125 C 24.140625 -1.28125 25 -1.332031 25.9375 -1.4375 C 26.875 -1.539062 27.632812 -1.757812 28.21875 -2.09375 C 28.488281 -2.269531 28.707031 -2.429688 28.875 -2.578125 C 29.050781 -2.734375 29.140625 -3.019531 29.140625 -3.4375 Z M 29.140625 -3.4375 "/></g></g></g><g fill="#000000" fill-opacity="1"><g transform="translate(106.491566, 38.749457)"><g><path d="M 5.640625 -13.78125 L 5.640625 -20.1875 C 5.640625 -22.4375 5.640625 -24.148438 5.640625 -25.328125 C 5.640625 -26.503906 5.628906 -27.390625 5.609375 -27.984375 C 5.585938 -28.585938 5.5625 -29.109375 5.53125 -29.546875 C 5.5 -30.234375 5.367188 -30.78125 5.140625 -31.1875 C 4.921875 -31.601562 4.4375 -31.859375 3.6875 -31.953125 C 3.207031 -32.023438 2.695312 -32.0625 2.15625 -32.0625 C 1.914062 -32.0625 1.796875 -32.179688 1.796875 -32.421875 C 1.796875 -32.660156 2.035156 -32.78125 2.515625 -32.78125 C 3.191406 -32.78125 3.90625 -32.769531 4.65625 -32.75 C 5.40625 -32.738281 6.0625 -32.722656 6.625 -32.703125 C 7.195312 -32.679688 7.550781 -32.671875 7.6875 -32.671875 C 7.820312 -32.671875 8.171875 -32.679688 8.734375 -32.703125 C 9.296875 -32.722656 9.910156 -32.738281 10.578125 -32.75 C 11.242188 -32.769531 11.796875 -32.78125 12.234375 -32.78125 C 12.753906 -32.78125 13.015625 -32.660156 13.015625 -32.421875 C 13.015625 -32.179688 12.875 -32.0625 12.59375 -32.0625 C 12.457031 -32.0625 12.300781 -32.0625 12.125 -32.0625 C 11.957031 -32.0625 11.738281 -32.023438 11.46875 -31.953125 C 10.894531 -31.859375 10.507812 -31.613281 10.3125 -31.21875 C 10.125 -30.820312 10 -30.265625 9.9375 -29.546875 C 9.90625 -29.109375 9.878906 -28.585938 9.859375 -27.984375 C 9.835938 -27.390625 9.828125 -26.503906 9.828125 -25.328125 C 9.828125 -24.148438 9.828125 -22.4375 9.828125 -20.1875 L 9.828125 -14.078125 C 9.828125 -11.992188 9.972656 -10.269531 10.265625 -8.90625 C 10.554688 -7.539062 10.945312 -6.429688 11.4375 -5.578125 C 11.9375 -4.722656 12.507812 -4.007812 13.15625 -3.4375 C 14.25 -2.445312 15.328125 -1.804688 16.390625 -1.515625 C 17.453125 -1.222656 18.613281 -1.078125 19.875 -1.078125 C 21.269531 -1.078125 22.59375 -1.359375 23.84375 -1.921875 C 25.09375 -2.484375 26.09375 -3.226562 26.84375 -4.15625 C 27.894531 -5.414062 28.582031 -6.929688 28.90625 -8.703125 C 29.238281 -10.484375 29.40625 -12.484375 29.40625 -14.703125 L 29.40625 -20.1875 C 29.40625 -22.4375 29.394531 -24.148438 29.375 -25.328125 C 29.351562 -26.503906 29.34375 -27.390625 29.34375 -27.984375 C 29.34375 -28.585938 29.328125 -29.109375 29.296875 -29.546875 C 29.265625 -30.234375 29.144531 -30.78125 28.9375 -31.1875 C 28.726562 -31.601562 28.25 -31.859375 27.5 -31.953125 C 27.019531 -32.023438 26.507812 -32.0625 25.96875 -32.0625 C 25.726562 -32.0625 25.609375 -32.179688 25.609375 -32.421875 C 25.609375 -32.660156 25.847656 -32.78125 26.328125 -32.78125 C 27.003906 -32.78125 27.703125 -32.769531 28.421875 -32.75 C 29.140625 -32.738281 29.765625 -32.722656 30.296875 -32.703125 C 30.828125 -32.679688 31.125 -32.671875 31.1875 -32.671875 C 31.363281 -32.671875 31.878906 -32.6875 32.734375 -32.71875 C 33.585938 -32.757812 34.335938 -32.78125 34.984375 -32.78125 C 35.460938 -32.78125 35.703125 -32.660156 35.703125 -32.421875 C 35.703125 -32.179688 35.582031 -32.0625 35.34375 -32.0625 C 35.207031 -32.0625 35.050781 -32.0625 34.875 -32.0625 C 34.707031 -32.0625 34.488281 -32.023438 34.21875 -31.953125 C 33.601562 -31.816406 33.203125 -31.5625 33.015625 -31.1875 C 32.828125 -30.8125 32.695312 -30.265625 32.625 -29.546875 C 32.59375 -29.109375 32.578125 -28.585938 32.578125 -27.984375 C 32.578125 -27.390625 32.578125 -26.503906 32.578125 -25.328125 C 32.578125 -24.148438 32.578125 -22.4375 32.578125 -20.1875 L 32.578125 -15.515625 C 32.578125 -13.941406 32.472656 -12.34375 32.265625 -10.71875 C 32.054688 -9.101562 31.65625 -7.578125 31.0625 -6.140625 C 30.46875 -4.710938 29.570312 -3.484375 28.375 -2.453125 C 26.738281 -1.054688 25.09375 -0.179688 23.4375 0.171875 C 21.78125 0.535156 20.285156 0.71875 18.953125 0.71875 C 18.472656 0.71875 17.6875 0.664062 16.59375 0.5625 C 15.5 0.457031 14.320312 0.191406 13.0625 -0.234375 C 11.800781 -0.660156 10.640625 -1.367188 9.578125 -2.359375 C 8.484375 -3.378906 7.550781 -4.742188 6.78125 -6.453125 C 6.019531 -8.160156 5.640625 -10.601562 5.640625 -13.78125 Z M 5.640625 -13.78125 "/></g></g></g><g fill="#000000" fill-opacity="1"><g transform="translate(143.984239, 38.749457)"><g><path d="M 7.9375 -12.5 L 7.9375 -20.1875 C 7.9375 -22.4375 7.9375 -24.148438 7.9375 -25.328125 C 7.9375 -26.503906 7.925781 -27.390625 7.90625 -27.984375 C 7.894531 -28.585938 7.875 -29.109375 7.84375 -29.546875 C 7.800781 -30.304688 7.671875 -30.875 7.453125 -31.25 C 7.234375 -31.625 6.75 -31.859375 6 -31.953125 C 5.519531 -32.023438 5.003906 -32.0625 4.453125 -32.0625 C 4.210938 -32.0625 4.09375 -32.179688 4.09375 -32.421875 C 4.09375 -32.660156 4.332031 -32.78125 4.8125 -32.78125 C 5.5 -32.78125 6.234375 -32.769531 7.015625 -32.75 C 7.796875 -32.738281 8.476562 -32.722656 9.0625 -32.703125 C 9.644531 -32.679688 9.96875 -32.671875 10.03125 -32.671875 C 10.101562 -32.671875 10.476562 -32.671875 11.15625 -32.671875 C 11.84375 -32.671875 12.679688 -32.671875 13.671875 -32.671875 C 14.660156 -32.671875 15.660156 -32.671875 16.671875 -32.671875 C 17.679688 -32.671875 18.566406 -32.671875 19.328125 -32.671875 C 20.097656 -32.671875 20.585938 -32.671875 20.796875 -32.671875 C 21.234375 -32.710938 21.640625 -32.753906 22.015625 -32.796875 C 22.398438 -32.847656 22.675781 -32.894531 22.84375 -32.9375 C 22.945312 -32.96875 23.046875 -33.007812 23.140625 -33.0625 C 23.242188 -33.113281 23.347656 -33.140625 23.453125 -33.140625 C 23.585938 -33.140625 23.65625 -33.003906 23.65625 -32.734375 C 23.65625 -32.597656 23.613281 -32.375 23.53125 -32.0625 C 23.445312 -31.757812 23.367188 -31.300781 23.296875 -30.6875 C 23.296875 -30.539062 23.28125 -30.269531 23.25 -29.875 C 23.21875 -29.488281 23.179688 -29.085938 23.140625 -28.671875 C 23.109375 -28.265625 23.078125 -27.976562 23.046875 -27.8125 C 22.984375 -27.5 22.847656 -27.34375 22.640625 -27.34375 C 22.398438 -27.34375 22.28125 -27.535156 22.28125 -27.921875 C 22.28125 -28.085938 22.257812 -28.320312 22.21875 -28.625 C 22.1875 -28.9375 22.125 -29.210938 22.03125 -29.453125 C 21.882812 -29.828125 21.613281 -30.109375 21.21875 -30.296875 C 20.832031 -30.484375 20.023438 -30.644531 18.796875 -30.78125 C 18.585938 -30.8125 18.164062 -30.835938 17.53125 -30.859375 C 16.90625 -30.878906 16.207031 -30.894531 15.4375 -30.90625 C 14.675781 -30.925781 13.992188 -30.9375 13.390625 -30.9375 C 12.796875 -30.9375 12.429688 -30.9375 12.296875 -30.9375 C 12.117188 -30.9375 12.03125 -30.78125 12.03125 -30.46875 L 12.03125 -18.640625 C 12.03125 -18.335938 12.117188 -18.1875 12.296875 -18.1875 C 12.429688 -18.1875 12.835938 -18.1875 13.515625 -18.1875 C 14.203125 -18.1875 14.988281 -18.1875 15.875 -18.1875 C 16.757812 -18.1875 17.578125 -18.191406 18.328125 -18.203125 C 19.085938 -18.222656 19.585938 -18.25 19.828125 -18.28125 C 20.367188 -18.351562 20.8125 -18.414062 21.15625 -18.46875 C 21.5 -18.519531 21.789062 -18.664062 22.03125 -18.90625 C 22.195312 -19.070312 22.332031 -19.207031 22.4375 -19.3125 C 22.539062 -19.414062 22.625 -19.46875 22.6875 -19.46875 C 22.863281 -19.46875 22.953125 -19.347656 22.953125 -19.109375 C 22.953125 -18.972656 22.90625 -18.710938 22.8125 -18.328125 C 22.726562 -17.953125 22.65625 -17.410156 22.59375 -16.703125 C 22.550781 -16.253906 22.503906 -15.710938 22.453125 -15.078125 C 22.398438 -14.453125 22.375 -14.050781 22.375 -13.875 C 22.375 -13.707031 22.347656 -13.53125 22.296875 -13.34375 C 22.253906 -13.15625 22.144531 -13.0625 21.96875 -13.0625 C 21.769531 -13.0625 21.671875 -13.195312 21.671875 -13.46875 C 21.671875 -13.675781 21.660156 -13.898438 21.640625 -14.140625 C 21.617188 -14.378906 21.554688 -14.632812 21.453125 -14.90625 C 21.390625 -15.207031 21.210938 -15.476562 20.921875 -15.71875 C 20.628906 -15.957031 20.039062 -16.128906 19.15625 -16.234375 C 18.84375 -16.265625 18.351562 -16.296875 17.6875 -16.328125 C 17.03125 -16.367188 16.320312 -16.394531 15.5625 -16.40625 C 14.8125 -16.425781 14.140625 -16.4375 13.546875 -16.4375 C 12.953125 -16.4375 12.550781 -16.4375 12.34375 -16.4375 C 12.132812 -16.4375 12.03125 -16.335938 12.03125 -16.140625 L 12.03125 -12.5 C 12.03125 -12.125 12.03125 -11.578125 12.03125 -10.859375 C 12.03125 -10.140625 12.03125 -9.367188 12.03125 -8.546875 C 12.03125 -7.734375 12.03125 -7 12.03125 -6.34375 C 12.03125 -5.695312 12.03125 -5.273438 12.03125 -5.078125 C 12.070312 -4.117188 12.226562 -3.378906 12.5 -2.859375 C 12.769531 -2.347656 13.289062 -2.007812 14.0625 -1.84375 C 14.832031 -1.675781 15.953125 -1.59375 17.421875 -1.59375 C 17.992188 -1.59375 18.738281 -1.609375 19.65625 -1.640625 C 20.582031 -1.671875 21.335938 -1.804688 21.921875 -2.046875 C 22.503906 -2.316406 22.957031 -2.675781 23.28125 -3.125 C 23.601562 -3.570312 23.832031 -4.222656 23.96875 -5.078125 C 24.070312 -5.515625 24.226562 -5.734375 24.4375 -5.734375 C 24.570312 -5.734375 24.65625 -5.664062 24.6875 -5.53125 C 24.71875 -5.394531 24.734375 -5.242188 24.734375 -5.078125 C 24.734375 -4.972656 24.695312 -4.640625 24.625 -4.078125 C 24.5625 -3.515625 24.488281 -2.914062 24.40625 -2.28125 C 24.320312 -1.644531 24.226562 -1.175781 24.125 -0.875 C 23.988281 -0.320312 23.757812 0 23.4375 0.09375 C 23.113281 0.195312 22.503906 0.25 21.609375 0.25 C 19.941406 0.25 18.445312 0.234375 17.125 0.203125 C 15.8125 0.171875 14.695312 0.140625 13.78125 0.109375 C 12.820312 0.0351562 12.039062 0 11.4375 0 C 10.84375 0 10.375 0 10.03125 0 C 10 0 9.785156 0 9.390625 0 C 9.003906 0 8.570312 0.015625 8.09375 0.046875 C 7.644531 0.0859375 7.191406 0.113281 6.734375 0.125 C 6.273438 0.144531 5.859375 0.15625 5.484375 0.15625 C 5.003906 0.15625 4.765625 0.0351562 4.765625 -0.203125 C 4.765625 -0.441406 4.882812 -0.5625 5.125 -0.5625 C 5.320312 -0.5625 5.550781 -0.585938 5.8125 -0.640625 C 6.070312 -0.691406 6.300781 -0.734375 6.5 -0.765625 C 6.945312 -0.835938 7.226562 -1.078125 7.34375 -1.484375 C 7.46875 -1.890625 7.582031 -2.421875 7.6875 -3.078125 C 7.820312 -3.960938 7.894531 -5.234375 7.90625 -6.890625 C 7.925781 -8.546875 7.9375 -10.414062 7.9375 -12.5 Z M 7.9375 -12.5 "/></g></g></g><g fill="#000000" fill-opacity="1"><g transform="translate(172.206182, 38.749457)"><g><path d="M 12.03125 -20.1875 L 12.03125 -12.390625 C 12.03125 -9.179688 12.082031 -6.84375 12.1875 -5.375 C 12.289062 -3.90625 12.546875 -2.984375 12.953125 -2.609375 C 13.328125 -2.265625 13.972656 -2.007812 14.890625 -1.84375 C 15.816406 -1.675781 17.171875 -1.59375 18.953125 -1.59375 C 20.148438 -1.59375 21.21875 -1.648438 22.15625 -1.765625 C 23.09375 -1.890625 23.832031 -2.273438 24.375 -2.921875 C 24.65625 -3.265625 24.890625 -3.648438 25.078125 -4.078125 C 25.265625 -4.503906 25.390625 -4.9375 25.453125 -5.375 C 25.523438 -5.75 25.679688 -5.9375 25.921875 -5.9375 C 26.117188 -5.9375 26.21875 -5.71875 26.21875 -5.28125 C 26.21875 -5.144531 26.179688 -4.800781 26.109375 -4.25 C 26.046875 -3.707031 25.972656 -3.128906 25.890625 -2.515625 C 25.804688 -1.898438 25.695312 -1.367188 25.5625 -0.921875 C 25.425781 -0.410156 25.210938 -0.0859375 24.921875 0.046875 C 24.628906 0.179688 23.882812 0.25 22.6875 0.25 C 19.582031 0.25 16.972656 0.203125 14.859375 0.109375 C 13.828125 0.0664062 12.914062 0.0351562 12.125 0.015625 C 11.34375 0.00390625 10.613281 0 9.9375 0 C 9.832031 0 9.609375 0 9.265625 0 C 8.929688 0 8.539062 0.015625 8.09375 0.046875 C 7.644531 0.0859375 7.191406 0.113281 6.734375 0.125 C 6.273438 0.144531 5.859375 0.15625 5.484375 0.15625 C 5.003906 0.15625 4.765625 0.0351562 4.765625 -0.203125 C 4.765625 -0.441406 4.882812 -0.5625 5.125 -0.5625 C 5.320312 -0.5625 5.550781 -0.585938 5.8125 -0.640625 C 6.070312 -0.691406 6.300781 -0.734375 6.5 -0.765625 C 6.945312 -0.867188 7.226562 -1.113281 7.34375 -1.5 C 7.46875 -1.894531 7.582031 -2.421875 7.6875 -3.078125 C 7.820312 -3.960938 7.894531 -5.234375 7.90625 -6.890625 C 7.925781 -8.546875 7.9375 -10.414062 7.9375 -12.5 L 7.9375 -20.1875 C 7.9375 -22.4375 7.9375 -24.148438 7.9375 -25.328125 C 7.9375 -26.503906 7.925781 -27.390625 7.90625 -27.984375 C 7.894531 -28.585938 7.875 -29.109375 7.84375 -29.546875 C 7.800781 -30.304688 7.671875 -30.875 7.453125 -31.25 C 7.234375 -31.625 6.75 -31.859375 6 -31.953125 C 5.519531 -32.023438 5.003906 -32.0625 4.453125 -32.0625 C 4.210938 -32.0625 4.09375 -32.179688 4.09375 -32.421875 C 4.09375 -32.660156 4.332031 -32.78125 4.8125 -32.78125 C 5.5 -32.78125 6.222656 -32.769531 6.984375 -32.75 C 7.753906 -32.738281 8.421875 -32.722656 8.984375 -32.703125 C 9.546875 -32.679688 9.863281 -32.671875 9.9375 -32.671875 C 10 -32.671875 10.347656 -32.679688 10.984375 -32.703125 C 11.617188 -32.722656 12.316406 -32.738281 13.078125 -32.75 C 13.847656 -32.769531 14.457031 -32.78125 14.90625 -32.78125 C 15.382812 -32.78125 15.625 -32.660156 15.625 -32.421875 C 15.625 -32.210938 15.503906 -32.109375 15.265625 -32.109375 C 15.128906 -32.109375 14.914062 -32.097656 14.625 -32.078125 C 14.332031 -32.066406 14.050781 -32.046875 13.78125 -32.015625 C 13.125 -31.878906 12.691406 -31.628906 12.484375 -31.265625 C 12.285156 -30.910156 12.15625 -30.335938 12.09375 -29.546875 C 12.09375 -29.109375 12.082031 -28.585938 12.0625 -27.984375 C 12.039062 -27.390625 12.03125 -26.503906 12.03125 -25.328125 C 12.03125 -24.148438 12.03125 -22.4375 12.03125 -20.1875 Z M 12.03125 -20.1875 "/></g></g></g><g fill="#000000" fill-opacity="1"><g transform="translate(199.608611, 38.749457)"><g/></g></g><g fill="#000000" fill-opacity="1"><g transform="translate(216.25495, 38.749457)"><g><path d="M 12.03125 -20.1875 L 12.03125 -12.390625 C 12.03125 -9.179688 12.082031 -6.84375 12.1875 -5.375 C 12.289062 -3.90625 12.546875 -2.984375 12.953125 -2.609375 C 13.328125 -2.265625 13.972656 -2.007812 14.890625 -1.84375 C 15.816406 -1.675781 17.171875 -1.59375 18.953125 -1.59375 C 20.148438 -1.59375 21.21875 -1.648438 22.15625 -1.765625 C 23.09375 -1.890625 23.832031 -2.273438 24.375 -2.921875 C 24.65625 -3.265625 24.890625 -3.648438 25.078125 -4.078125 C 25.265625 -4.503906 25.390625 -4.9375 25.453125 -5.375 C 25.523438 -5.75 25.679688 -5.9375 25.921875 -5.9375 C 26.117188 -5.9375 26.21875 -5.71875 26.21875 -5.28125 C 26.21875 -5.144531 26.179688 -4.800781 26.109375 -4.25 C 26.046875 -3.707031 25.972656 -3.128906 25.890625 -2.515625 C 25.804688 -1.898438 25.695312 -1.367188 25.5625 -0.921875 C 25.425781 -0.410156 25.210938 -0.0859375 24.921875 0.046875 C 24.628906 0.179688 23.882812 0.25 22.6875 0.25 C 19.582031 0.25 16.972656 0.203125 14.859375 0.109375 C 13.828125 0.0664062 12.914062 0.0351562 12.125 0.015625 C 11.34375 0.00390625 10.613281 0 9.9375 0 C 9.832031 0 9.609375 0 9.265625 0 C 8.929688 0 8.539062 0.015625 8.09375 0.046875 C 7.644531 0.0859375 7.191406 0.113281 6.734375 0.125 C 6.273438 0.144531 5.859375 0.15625 5.484375 0.15625 C 5.003906 0.15625 4.765625 0.0351562 4.765625 -0.203125 C 4.765625 -0.441406 4.882812 -0.5625 5.125 -0.5625 C 5.320312 -0.5625 5.550781 -0.585938 5.8125 -0.640625 C 6.070312 -0.691406 6.300781 -0.734375 6.5 -0.765625 C 6.945312 -0.867188 7.226562 -1.113281 7.34375 -1.5 C 7.46875 -1.894531 7.582031 -2.421875 7.6875 -3.078125 C 7.820312 -3.960938 7.894531 -5.234375 7.90625 -6.890625 C 7.925781 -8.546875 7.9375 -10.414062 7.9375 -12.5 L 7.9375 -20.1875 C 7.9375 -22.4375 7.9375 -24.148438 7.9375 -25.328125 C 7.9375 -26.503906 7.925781 -27.390625 7.90625 -27.984375 C 7.894531 -28.585938 7.875 -29.109375 7.84375 -29.546875 C 7.800781 -30.304688 7.671875 -30.875 7.453125 -31.25 C 7.234375 -31.625 6.75 -31.859375 6 -31.953125 C 5.519531 -32.023438 5.003906 -32.0625 4.453125 -32.0625 C 4.210938 -32.0625 4.09375 -32.179688 4.09375 -32.421875 C 4.09375 -32.660156 4.332031 -32.78125 4.8125 -32.78125 C 5.5 -32.78125 6.222656 -32.769531 6.984375 -32.75 C 7.753906 -32.738281 8.421875 -32.722656 8.984375 -32.703125 C 9.546875 -32.679688 9.863281 -32.671875 9.9375 -32.671875 C 10 -32.671875 10.347656 -32.679688 10.984375 -32.703125 C 11.617188 -32.722656 12.316406 -32.738281 13.078125 -32.75 C 13.847656 -32.769531 14.457031 -32.78125 14.90625 -32.78125 C 15.382812 -32.78125 15.625 -32.660156 15.625 -32.421875 C 15.625 -32.210938 15.503906 -32.109375 15.265625 -32.109375 C 15.128906 -32.109375 14.914062 -32.097656 14.625 -32.078125 C 14.332031 -32.066406 14.050781 -32.046875 13.78125 -32.015625 C 13.125 -31.878906 12.691406 -31.628906 12.484375 -31.265625 C 12.285156 -30.910156 12.15625 -30.335938 12.09375 -29.546875 C 12.09375 -29.109375 12.082031 -28.585938 12.0625 -27.984375 C 12.039062 -27.390625 12.03125 -26.503906 12.03125 -25.328125 C 12.03125 -24.148438 12.03125 -22.4375 12.03125 -20.1875 Z M 12.03125 -20.1875 "/></g></g></g><g fill="#000000" fill-opacity="1"><g transform="translate(243.657378, 38.749457)"><g><path d="M 5.640625 -13.78125 L 5.640625 -20.1875 C 5.640625 -22.4375 5.640625 -24.148438 5.640625 -25.328125 C 5.640625 -26.503906 5.628906 -27.390625 5.609375 -27.984375 C 5.585938 -28.585938 5.5625 -29.109375 5.53125 -29.546875 C 5.5 -30.234375 5.367188 -30.78125 5.140625 -31.1875 C 4.921875 -31.601562 4.4375 -31.859375 3.6875 -31.953125 C 3.207031 -32.023438 2.695312 -32.0625 2.15625 -32.0625 C 1.914062 -32.0625 1.796875 -32.179688 1.796875 -32.421875 C 1.796875 -32.660156 2.035156 -32.78125 2.515625 -32.78125 C 3.191406 -32.78125 3.90625 -32.769531 4.65625 -32.75 C 5.40625 -32.738281 6.0625 -32.722656 6.625 -32.703125 C 7.195312 -32.679688 7.550781 -32.671875 7.6875 -32.671875 C 7.820312 -32.671875 8.171875 -32.679688 8.734375 -32.703125 C 9.296875 -32.722656 9.910156 -32.738281 10.578125 -32.75 C 11.242188 -32.769531 11.796875 -32.78125 12.234375 -32.78125 C 12.753906 -32.78125 13.015625 -32.660156 13.015625 -32.421875 C 13.015625 -32.179688 12.875 -32.0625 12.59375 -32.0625 C 12.457031 -32.0625 12.300781 -32.0625 12.125 -32.0625 C 11.957031 -32.0625 11.738281 -32.023438 11.46875 -31.953125 C 10.894531 -31.859375 10.507812 -31.613281 10.3125 -31.21875 C 10.125 -30.820312 10 -30.265625 9.9375 -29.546875 C 9.90625 -29.109375 9.878906 -28.585938 9.859375 -27.984375 C 9.835938 -27.390625 9.828125 -26.503906 9.828125 -25.328125 C 9.828125 -24.148438 9.828125 -22.4375 9.828125 -20.1875 L 9.828125 -14.078125 C 9.828125 -11.992188 9.972656 -10.269531 10.265625 -8.90625 C 10.554688 -7.539062 10.945312 -6.429688 11.4375 -5.578125 C 11.9375 -4.722656 12.507812 -4.007812 13.15625 -3.4375 C 14.25 -2.445312 15.328125 -1.804688 16.390625 -1.515625 C 17.453125 -1.222656 18.613281 -1.078125 19.875 -1.078125 C 21.269531 -1.078125 22.59375 -1.359375 23.84375 -1.921875 C 25.09375 -2.484375 26.09375 -3.226562 26.84375 -4.15625 C 27.894531 -5.414062 28.582031 -6.929688 28.90625 -8.703125 C 29.238281 -10.484375 29.40625 -12.484375 29.40625 -14.703125 L 29.40625 -20.1875 C 29.40625 -22.4375 29.394531 -24.148438 29.375 -25.328125 C 29.351562 -26.503906 29.34375 -27.390625 29.34375 -27.984375 C 29.34375 -28.585938 29.328125 -29.109375 29.296875 -29.546875 C 29.265625 -30.234375 29.144531 -30.78125 28.9375 -31.1875 C 28.726562 -31.601562 28.25 -31.859375 27.5 -31.953125 C 27.019531 -32.023438 26.507812 -32.0625 25.96875 -32.0625 C 25.726562 -32.0625 25.609375 -32.179688 25.609375 -32.421875 C 25.609375 -32.660156 25.847656 -32.78125 26.328125 -32.78125 C 27.003906 -32.78125 27.703125 -32.769531 28.421875 -32.75 C 29.140625 -32.738281 29.765625 -32.722656 30.296875 -32.703125 C 30.828125 -32.679688 31.125 -32.671875 31.1875 -32.671875 C 31.363281 -32.671875 31.878906 -32.6875 32.734375 -32.71875 C 33.585938 -32.757812 34.335938 -32.78125 34.984375 -32.78125 C 35.460938 -32.78125 35.703125 -32.660156 35.703125 -32.421875 C 35.703125 -32.179688 35.582031 -32.0625 35.34375 -32.0625 C 35.207031 -32.0625 35.050781 -32.0625 34.875 -32.0625 C 34.707031 -32.0625 34.488281 -32.023438 34.21875 -31.953125 C 33.601562 -31.816406 33.203125 -31.5625 33.015625 -31.1875 C 32.828125 -30.8125 32.695312 -30.265625 32.625 -29.546875 C 32.59375 -29.109375 32.578125 -28.585938 32.578125 -27.984375 C 32.578125 -27.390625 32.578125 -26.503906 32.578125 -25.328125 C 32.578125 -24.148438 32.578125 -22.4375 32.578125 -20.1875 L 32.578125 -15.515625 C 32.578125 -13.941406 32.472656 -12.34375 32.265625 -10.71875 C 32.054688 -9.101562 31.65625 -7.578125 31.0625 -6.140625 C 30.46875 -4.710938 29.570312 -3.484375 28.375 -2.453125 C 26.738281 -1.054688 25.09375 -0.179688 23.4375 0.171875 C 21.78125 0.535156 20.285156 0.71875 18.953125 0.71875 C 18.472656 0.71875 17.6875 0.664062 16.59375 0.5625 C 15.5 0.457031 14.320312 0.191406 13.0625 -0.234375 C 11.800781 -0.660156 10.640625 -1.367188 9.578125 -2.359375 C 8.484375 -3.378906 7.550781 -4.742188 6.78125 -6.453125 C 6.019531 -8.160156 5.640625 -10.601562 5.640625 -13.78125 Z M 5.640625 -13.78125 "/></g></g></g><g fill="#000000" fill-opacity="1"><g transform="translate(281.15005, 38.749457)"><g><path d="M 9.328125 -26.328125 L 9.828125 -5.78125 C 9.898438 -4.007812 10.054688 -2.78125 10.296875 -2.09375 C 10.535156 -1.414062 10.960938 -0.988281 11.578125 -0.8125 C 11.984375 -0.71875 12.40625 -0.648438 12.84375 -0.609375 C 13.289062 -0.578125 13.617188 -0.5625 13.828125 -0.5625 C 14.066406 -0.5625 14.1875 -0.441406 14.1875 -0.203125 C 14.1875 0.0351562 13.914062 0.15625 13.375 0.15625 C 12.101562 0.15625 11.039062 0.128906 10.1875 0.078125 C 9.332031 0.0234375 8.804688 0 8.609375 0 C 8.398438 0 7.875 0.0234375 7.03125 0.078125 C 6.195312 0.128906 5.269531 0.15625 4.25 0.15625 C 3.769531 0.15625 3.53125 0.0351562 3.53125 -0.203125 C 3.53125 -0.441406 3.648438 -0.5625 3.890625 -0.5625 C 4.066406 -0.5625 4.332031 -0.578125 4.6875 -0.609375 C 5.039062 -0.648438 5.390625 -0.71875 5.734375 -0.8125 C 6.316406 -0.988281 6.675781 -1.441406 6.8125 -2.171875 C 6.945312 -2.910156 7.015625 -4.269531 7.015625 -6.25 L 7.015625 -31.1875 C 7.015625 -32.082031 7.070312 -32.671875 7.1875 -32.953125 C 7.3125 -33.242188 7.457031 -33.390625 7.625 -33.390625 C 7.90625 -33.390625 8.207031 -33.226562 8.53125 -32.90625 C 8.851562 -32.582031 9.132812 -32.300781 9.375 -32.0625 C 9.539062 -31.894531 10.050781 -31.363281 10.90625 -30.46875 C 11.757812 -29.582031 12.84375 -28.445312 14.15625 -27.0625 C 15.476562 -25.6875 16.945312 -24.148438 18.5625 -22.453125 C 20.1875 -20.765625 21.867188 -19.015625 23.609375 -17.203125 C 25.109375 -15.671875 26.582031 -14.132812 28.03125 -12.59375 C 29.488281 -11.0625 30.78125 -9.695312 31.90625 -8.5 C 33.03125 -7.300781 33.816406 -6.46875 34.265625 -6 L 33.796875 -27.8125 C 33.765625 -29.207031 33.644531 -30.195312 33.4375 -30.78125 C 33.238281 -31.363281 32.796875 -31.722656 32.109375 -31.859375 C 31.703125 -31.921875 31.273438 -31.96875 30.828125 -32 C 30.390625 -32.039062 30.082031 -32.0625 29.90625 -32.0625 C 29.769531 -32.0625 29.675781 -32.113281 29.625 -32.21875 C 29.570312 -32.320312 29.546875 -32.40625 29.546875 -32.46875 C 29.546875 -32.675781 29.835938 -32.78125 30.421875 -32.78125 C 31.441406 -32.78125 32.421875 -32.757812 33.359375 -32.71875 C 34.304688 -32.6875 34.898438 -32.671875 35.140625 -32.671875 C 35.410156 -32.671875 35.882812 -32.6875 36.5625 -32.71875 C 37.25 -32.757812 38.054688 -32.78125 38.984375 -32.78125 C 39.523438 -32.78125 39.796875 -32.675781 39.796875 -32.46875 C 39.796875 -32.40625 39.753906 -32.320312 39.671875 -32.21875 C 39.585938 -32.113281 39.457031 -32.0625 39.28125 -32.0625 C 39.175781 -32.0625 39.039062 -32.0625 38.875 -32.0625 C 38.707031 -32.0625 38.484375 -32.023438 38.203125 -31.953125 C 37.453125 -31.816406 37 -31.472656 36.84375 -30.921875 C 36.695312 -30.378906 36.625 -29.460938 36.625 -28.171875 L 36.515625 -2.65625 C 36.515625 -1.226562 36.5 -0.347656 36.46875 -0.015625 C 36.4375 0.304688 36.332031 0.46875 36.15625 0.46875 C 35.914062 0.46875 35.597656 0.3125 35.203125 0 C 34.816406 -0.3125 33.992188 -1.046875 32.734375 -2.203125 C 32.628906 -2.304688 32.179688 -2.738281 31.390625 -3.5 C 30.609375 -4.269531 29.632812 -5.234375 28.46875 -6.390625 C 27.3125 -7.554688 26.078125 -8.804688 24.765625 -10.140625 C 23.453125 -11.472656 22.195312 -12.753906 21 -13.984375 C 19.257812 -15.828125 17.585938 -17.59375 15.984375 -19.28125 C 14.378906 -20.96875 12.984375 -22.4375 11.796875 -23.6875 C 10.617188 -24.9375 9.796875 -25.816406 9.328125 -26.328125 Z M 9.328125 -26.328125 "/></g></g></g><g fill="#000000" fill-opacity="1"><g transform="translate(323.815904, 38.749457)"><g><path d="M 4.203125 -4.65625 L 14.796875 -31.90625 C 15.078125 -32.625 15.289062 -33.082031 15.4375 -33.28125 C 15.59375 -33.488281 15.738281 -33.59375 15.875 -33.59375 C 16.113281 -33.59375 16.289062 -33.445312 16.40625 -33.15625 C 16.53125 -32.875 16.710938 -32.492188 16.953125 -32.015625 C 17.085938 -31.703125 17.375 -30.988281 17.8125 -29.875 C 18.257812 -28.769531 18.816406 -27.414062 19.484375 -25.8125 C 20.148438 -24.207031 20.867188 -22.460938 21.640625 -20.578125 C 22.410156 -18.703125 23.171875 -16.828125 23.921875 -14.953125 C 24.671875 -13.078125 25.382812 -11.316406 26.0625 -9.671875 C 26.75 -8.035156 27.316406 -6.671875 27.765625 -5.578125 C 28.304688 -4.285156 28.804688 -3.3125 29.265625 -2.65625 C 29.734375 -2.007812 30.160156 -1.566406 30.546875 -1.328125 C 30.941406 -1.085938 31.296875 -0.914062 31.609375 -0.8125 C 31.941406 -0.71875 32.257812 -0.648438 32.5625 -0.609375 C 32.875 -0.578125 33.148438 -0.5625 33.390625 -0.5625 C 33.523438 -0.5625 33.648438 -0.535156 33.765625 -0.484375 C 33.890625 -0.429688 33.953125 -0.335938 33.953125 -0.203125 C 33.953125 -0.0664062 33.847656 0.0234375 33.640625 0.078125 C 33.441406 0.128906 33.207031 0.15625 32.9375 0.15625 C 32.726562 0.15625 32.253906 0.15625 31.515625 0.15625 C 30.785156 0.15625 29.914062 0.144531 28.90625 0.125 C 27.90625 0.113281 26.875 0.0859375 25.8125 0.046875 C 25.363281 0.015625 24.984375 -0.00390625 24.671875 -0.015625 C 24.367188 -0.0351562 24.21875 -0.113281 24.21875 -0.25 C 24.21875 -0.351562 24.320312 -0.457031 24.53125 -0.5625 C 24.664062 -0.632812 24.8125 -0.765625 24.96875 -0.953125 C 25.125 -1.140625 25.113281 -1.398438 24.9375 -1.734375 L 20.890625 -11.734375 C 20.828125 -11.898438 20.691406 -11.984375 20.484375 -11.984375 L 10.09375 -11.984375 C 9.882812 -11.984375 9.726562 -11.863281 9.625 -11.625 L 7.0625 -4.65625 C 6.625 -3.5 6.40625 -2.523438 6.40625 -1.734375 C 6.40625 -1.296875 6.566406 -0.988281 6.890625 -0.8125 C 7.210938 -0.644531 7.5625 -0.5625 7.9375 -0.5625 L 8.34375 -0.5625 C 8.65625 -0.5625 8.8125 -0.441406 8.8125 -0.203125 C 8.8125 0.0351562 8.585938 0.15625 8.140625 0.15625 C 7.796875 0.15625 7.332031 0.132812 6.75 0.09375 C 6.175781 0.0625 5.632812 0.0351562 5.125 0.015625 C 4.613281 0.00390625 4.269531 0 4.09375 0 C 3.851562 0 3.265625 0.0234375 2.328125 0.078125 C 1.390625 0.128906 0.457031 0.15625 -0.46875 0.15625 C -1.039062 0.15625 -1.328125 0.0351562 -1.328125 -0.203125 C -1.328125 -0.441406 -1.191406 -0.5625 -0.921875 -0.5625 C -0.515625 -0.5625 -0.0703125 -0.597656 0.40625 -0.671875 C 1.4375 -0.804688 2.210938 -1.226562 2.734375 -1.9375 C 3.265625 -2.65625 3.753906 -3.5625 4.203125 -4.65625 Z M 10.703125 -13.78125 L 19.828125 -13.78125 C 19.992188 -13.78125 20.039062 -13.878906 19.96875 -14.078125 L 15.515625 -26.015625 C 15.273438 -26.703125 15.019531 -26.703125 14.75 -26.015625 L 10.546875 -14.078125 C 10.515625 -13.878906 10.566406 -13.78125 10.703125 -13.78125 Z M 10.703125 -13.78125 "/></g></g></g></g></g><g fill="#000000" fill-opacity="1"><g transform="translate(237.396831, 221.946811)"><g><path d="M 1.984375 -19.578125 C 2.003906 -19.585938 2.164062 -19.59375 2.46875 -19.59375 C 2.757812 -19.59375 3.1875 -19.585938 3.75 -19.578125 L 12.828125 -5.9375 L 12.859375 -19.578125 L 14.453125 -19.578125 L 14.46875 -0.640625 L 12.796875 -0.640625 L 3.71875 -14.5625 L 3.71875 -0.640625 L 1.953125 -0.640625 C 1.953125 -13.222656 1.960938 -19.535156 1.984375 -19.578125 Z M 1.984375 -19.578125 "/></g></g></g><g fill="#000000" fill-opacity="1"><g transform="translate(253.830591, 221.946811)"><g><path d="M 1.6875 -9.078125 L 1.6875 -13.46875 L 4.59375 -13.46875 L 4.59375 -8.984375 C 4.59375 -6.171875 4.617188 -4.625 4.671875 -4.34375 C 4.929688 -3.375 5.425781 -2.710938 6.15625 -2.359375 C 6.363281 -2.242188 6.515625 -2.175781 6.609375 -2.15625 C 6.703125 -2.132812 6.914062 -2.125 7.25 -2.125 C 7.832031 -2.125 8.335938 -2.238281 8.765625 -2.46875 C 9.453125 -2.820312 10.003906 -3.398438 10.421875 -4.203125 C 10.617188 -4.648438 10.734375 -5.070312 10.765625 -5.46875 C 10.796875 -5.875 10.8125 -7.171875 10.8125 -9.359375 L 10.8125 -13.46875 L 13.71875 -13.46875 L 13.71875 -0.53125 L 10.8125 -0.53125 L 10.8125 -1.84375 L 10.78125 -3.15625 L 10.5625 -2.796875 C 10.09375 -2.035156 9.472656 -1.445312 8.703125 -1.03125 C 7.972656 -0.65625 7.171875 -0.46875 6.296875 -0.46875 C 5.046875 -0.488281 4.03125 -0.828125 3.25 -1.484375 C 2.46875 -2.140625 1.972656 -3.09375 1.765625 -4.34375 C 1.710938 -4.695312 1.6875 -6.273438 1.6875 -9.078125 Z M 1.6875 -9.078125 "/></g></g></g><g fill="#000000" fill-opacity="1"><g transform="translate(269.22849, 221.946811)"><g><path d="M 5.3125 -2.578125 L 5.453125 -2.328125 C 5.546875 -2.117188 5.664062 -1.988281 5.8125 -1.9375 C 5.96875 -1.894531 6.09375 -1.875 6.1875 -1.875 C 6.320312 -1.875 6.460938 -1.898438 6.609375 -1.953125 C 6.890625 -2.085938 7.085938 -2.285156 7.203125 -2.546875 L 7.25 -2.71875 L 8.5625 -2.71875 L 8.421875 -2.234375 C 8.160156 -1.429688 7.554688 -0.898438 6.609375 -0.640625 C 6.347656 -0.566406 5.984375 -0.53125 5.515625 -0.53125 C 5.046875 -0.53125 4.691406 -0.566406 4.453125 -0.640625 C 3.316406 -0.960938 2.660156 -1.578125 2.484375 -2.484375 C 2.453125 -2.671875 2.4375 -4.363281 2.4375 -7.5625 L 2.4375 -12.546875 L 0.203125 -12.546875 L 0.203125 -13.4375 L 2.4375 -13.4375 L 2.4375 -16.765625 L 5.34375 -16.765625 L 5.3125 -15.28125 C 5.3125 -14.40625 5.320312 -13.875 5.34375 -13.6875 L 5.375 -13.4375 L 8.171875 -13.4375 L 8.171875 -12.546875 L 5.34375 -12.546875 L 5.3125 -12.3125 L 5.3125 -12.296875 C 5.3125 -12.273438 5.3125 -12.253906 5.3125 -12.234375 L 5.3125 -12.15625 C 5.3125 -12.132812 5.3125 -12.101562 5.3125 -12.0625 L 5.3125 -11.953125 C 5.3125 -11.929688 5.3125 -11.914062 5.3125 -11.90625 L 5.3125 -11.84375 C 5.3125 -11.820312 5.3125 -11.800781 5.3125 -11.78125 L 5.3125 -10.78125 C 5.3125 -10.644531 5.3125 -10.515625 5.3125 -10.390625 L 5.3125 -10.109375 C 5.3125 -10.015625 5.3125 -9.910156 5.3125 -9.796875 L 5.3125 -9.484375 C 5.3125 -9.453125 5.3125 -9.414062 5.3125 -9.375 L 5.3125 -9.21875 C 5.3125 -9.175781 5.3125 -9.128906 5.3125 -9.078125 Z M 5.3125 -2.578125 "/></g></g></g><g fill="#000000" fill-opacity="1"><g transform="translate(278.131272, 221.946811)"><g><path d="M 7.59375 -13.5 C 7.789062 -13.53125 7.992188 -13.546875 8.203125 -13.546875 C 8.671875 -13.546875 9.128906 -13.445312 9.578125 -13.25 C 9.785156 -13.164062 10.023438 -12.988281 10.296875 -12.71875 C 10.566406 -12.445312 10.789062 -12.128906 10.96875 -11.765625 C 11.382812 -10.941406 11.59375 -10.003906 11.59375 -8.953125 L 11.59375 -8.5625 L 8.703125 -8.5625 L 8.65625 -9.1875 C 8.613281 -9.945312 8.488281 -10.550781 8.28125 -11 C 8.039062 -11.507812 7.804688 -11.769531 7.578125 -11.78125 C 7.359375 -11.800781 7.234375 -11.8125 7.203125 -11.8125 C 6.804688 -11.8125 6.382812 -11.609375 5.9375 -11.203125 C 5.507812 -10.753906 5.132812 -10 4.8125 -8.9375 L 4.59375 -8.203125 L 4.59375 -0.640625 L 1.6875 -0.640625 L 1.6875 -13.46875 L 4.59375 -13.46875 L 4.59375 -10.21875 L 4.703125 -10.5625 C 5.222656 -11.8125 5.960938 -12.695312 6.921875 -13.21875 C 7.203125 -13.363281 7.425781 -13.457031 7.59375 -13.5 Z M 7.59375 -13.5 "/></g></g></g><g fill="#000000" fill-opacity="1"><g transform="translate(290.197624, 221.946811)"><g><path d="M 1.6875 -13.46875 L 4.59375 -13.46875 L 4.59375 -0.640625 L 1.6875 -0.640625 Z M 1.6875 -18.765625 L 4.59375 -18.765625 L 4.59375 -16.21875 L 1.6875 -16.21875 Z M 1.6875 -18.765625 "/></g></g></g><g fill="#000000" fill-opacity="1"><g transform="translate(296.468768, 221.946811)"><g><path d="M 8.015625 -18.921875 C 8.210938 -19.367188 8.332031 -19.601562 8.375 -19.625 C 8.425781 -19.644531 8.894531 -19.65625 9.78125 -19.65625 C 10.664062 -19.65625 11.113281 -19.648438 11.125 -19.640625 C 11.132812 -19.628906 11.140625 -19.625 11.140625 -19.625 C 11.140625 -19.59375 10.914062 -19.25 10.46875 -18.59375 C 10.113281 -18.050781 9.609375 -17.273438 8.953125 -16.265625 L 8.125 -14.984375 L 7.25 -14.953125 C 6.6875 -14.953125 6.40625 -14.960938 6.40625 -14.984375 C 6.40625 -15.003906 6.628906 -15.550781 7.078125 -16.625 C 7.359375 -17.28125 7.671875 -18.046875 8.015625 -18.921875 Z M 6.65625 -13.53125 C 6.90625 -13.539062 7.160156 -13.546875 7.421875 -13.546875 C 7.867188 -13.546875 8.34375 -13.507812 8.84375 -13.4375 C 9.945312 -13.25 10.890625 -12.816406 11.671875 -12.140625 C 12.460938 -11.472656 13.015625 -10.644531 13.328125 -9.65625 C 13.535156 -9.007812 13.644531 -8.265625 13.65625 -7.421875 C 13.644531 -5.796875 13.378906 -4.5 12.859375 -3.53125 C 12.347656 -2.5625 11.550781 -1.796875 10.46875 -1.234375 C 9.613281 -0.804688 8.890625 -0.582031 8.296875 -0.5625 C 7.710938 -0.539062 7.382812 -0.53125 7.3125 -0.53125 C 6.320312 -0.53125 5.394531 -0.707031 4.53125 -1.0625 C 3.632812 -1.4375 2.925781 -1.941406 2.40625 -2.578125 C 2.28125 -2.722656 2.128906 -2.96875 1.953125 -3.3125 C 1.785156 -3.664062 1.664062 -3.953125 1.59375 -4.171875 C 1.425781 -4.640625 1.304688 -5.050781 1.234375 -5.40625 C 1.160156 -5.757812 1.125 -6.335938 1.125 -7.140625 C 1.125 -7.921875 1.222656 -8.617188 1.421875 -9.234375 C 1.929688 -10.992188 3.070312 -12.253906 4.84375 -13.015625 C 5.457031 -13.273438 6.0625 -13.445312 6.65625 -13.53125 Z M 7.953125 -12.71875 C 7.765625 -12.75 7.585938 -12.765625 7.421875 -12.765625 C 7.097656 -12.765625 6.789062 -12.707031 6.5 -12.59375 C 5.75 -12.320312 5.132812 -11.675781 4.65625 -10.65625 C 4.1875 -9.632812 3.953125 -8.5 3.953125 -7.25 C 3.953125 -6.050781 4.144531 -4.929688 4.53125 -3.890625 C 5 -2.660156 5.65625 -1.882812 6.5 -1.5625 C 6.695312 -1.488281 6.9375 -1.453125 7.21875 -1.453125 C 7.257812 -1.453125 7.375 -1.457031 7.5625 -1.46875 C 7.75 -1.476562 7.972656 -1.519531 8.234375 -1.59375 C 9.410156 -1.988281 10.210938 -3.210938 10.640625 -5.265625 C 10.828125 -6.066406 10.921875 -6.832031 10.921875 -7.5625 C 10.921875 -8.394531 10.800781 -9.171875 10.5625 -9.890625 C 10.3125 -10.648438 9.957031 -11.273438 9.5 -11.765625 C 9.039062 -12.265625 8.523438 -12.582031 7.953125 -12.71875 Z M 7.953125 -12.71875 "/></g></g></g><g fill="#000000" fill-opacity="1"><g transform="translate(311.250757, 221.946811)"><g><path d="M 1.953125 -20.4375 L 4.875 -20.4375 L 4.875 -10.578125 L 4.84375 -0.671875 L 3.421875 -0.640625 L 1.953125 -0.640625 Z M 1.953125 -20.4375 "/></g></g></g><g fill="#000000" fill-opacity="1"><g transform="translate(318.081827, 221.946811)"><g><path d="M 6.65625 -13.53125 C 6.90625 -13.539062 7.160156 -13.546875 7.421875 -13.546875 C 7.867188 -13.546875 8.34375 -13.507812 8.84375 -13.4375 C 9.945312 -13.25 10.890625 -12.816406 11.671875 -12.140625 C 12.460938 -11.472656 13.015625 -10.644531 13.328125 -9.65625 C 13.535156 -9.007812 13.644531 -8.265625 13.65625 -7.421875 C 13.644531 -5.796875 13.378906 -4.5 12.859375 -3.53125 C 12.347656 -2.5625 11.550781 -1.796875 10.46875 -1.234375 C 9.613281 -0.804688 8.890625 -0.582031 8.296875 -0.5625 C 7.710938 -0.539062 7.382812 -0.53125 7.3125 -0.53125 C 6.320312 -0.53125 5.394531 -0.707031 4.53125 -1.0625 C 3.632812 -1.4375 2.925781 -1.941406 2.40625 -2.578125 C 2.28125 -2.722656 2.128906 -2.96875 1.953125 -3.3125 C 1.785156 -3.664062 1.664062 -3.953125 1.59375 -4.171875 C 1.425781 -4.640625 1.304688 -5.050781 1.234375 -5.40625 C 1.160156 -5.757812 1.125 -6.335938 1.125 -7.140625 C 1.125 -7.921875 1.222656 -8.617188 1.421875 -9.234375 C 1.929688 -10.992188 3.070312 -12.253906 4.84375 -13.015625 C 5.457031 -13.273438 6.0625 -13.445312 6.65625 -13.53125 Z M 7.953125 -12.71875 C 7.765625 -12.75 7.585938 -12.765625 7.421875 -12.765625 C 7.097656 -12.765625 6.789062 -12.707031 6.5 -12.59375 C 5.75 -12.320312 5.132812 -11.675781 4.65625 -10.65625 C 4.1875 -9.632812 3.953125 -8.5 3.953125 -7.25 C 3.953125 -6.050781 4.144531 -4.929688 4.53125 -3.890625 C 5 -2.660156 5.65625 -1.882812 6.5 -1.5625 C 6.695312 -1.488281 6.9375 -1.453125 7.21875 -1.453125 C 7.257812 -1.453125 7.375 -1.457031 7.5625 -1.46875 C 7.75 -1.476562 7.972656 -1.519531 8.234375 -1.59375 C 9.410156 -1.988281 10.210938 -3.210938 10.640625 -5.265625 C 10.828125 -6.066406 10.921875 -6.832031 10.921875 -7.5625 C 10.921875 -8.394531 10.800781 -9.171875 10.5625 -9.890625 C 10.3125 -10.648438 9.957031 -11.273438 9.5 -11.765625 C 9.039062 -12.265625 8.523438 -12.582031 7.953125 -12.71875 Z M 7.953125 -12.71875 "/></g></g></g><g fill="#000000" fill-opacity="1"><g transform="translate(332.863816, 221.946811)"><g><path d="M 5.96875 -13.4375 C 6.351562 -13.53125 6.722656 -13.578125 7.078125 -13.578125 C 7.421875 -13.578125 7.738281 -13.539062 8.03125 -13.46875 C 8.820312 -13.28125 9.503906 -12.859375 10.078125 -12.203125 L 10.296875 -11.953125 L 10.296875 -13.265625 L 13.21875 -13.265625 L 13.21875 -6.25 C 13.195312 -1.539062 13.148438 0.929688 13.078125 1.171875 C 12.835938 1.992188 12.460938 2.648438 11.953125 3.140625 C 11.316406 3.753906 10.503906 4.21875 9.515625 4.53125 C 8.828125 4.757812 8.015625 4.875 7.078125 4.875 C 6.367188 4.875 5.828125 4.828125 5.453125 4.734375 C 3.742188 4.359375 2.625 3.554688 2.09375 2.328125 C 2 2.078125 1.898438 1.753906 1.796875 1.359375 C 1.703125 0.972656 1.65625 0.695312 1.65625 0.53125 C 1.65625 0.476562 2.070312 0.453125 2.90625 0.453125 L 4.53125 0.453125 L 4.53125 0.640625 C 4.53125 1.148438 4.609375 1.628906 4.765625 2.078125 C 4.859375 2.335938 5.019531 2.601562 5.25 2.875 C 5.476562 3.15625 5.71875 3.363281 5.96875 3.5 C 6.394531 3.757812 6.832031 3.890625 7.28125 3.890625 C 7.5 3.890625 7.835938 3.8125 8.296875 3.65625 C 8.753906 3.507812 9.191406 3.078125 9.609375 2.359375 C 9.847656 1.910156 10.019531 1.46875 10.125 1.03125 C 10.238281 0.601562 10.304688 0.0078125 10.328125 -0.75 L 10.359375 -1.796875 L 10.15625 -1.59375 C 9.582031 -1.019531 8.8125 -0.710938 7.84375 -0.671875 C 7.613281 -0.648438 7.398438 -0.640625 7.203125 -0.640625 C 5.441406 -0.640625 4.007812 -1.0625 2.90625 -1.90625 C 1.84375 -2.707031 1.253906 -4.179688 1.140625 -6.328125 C 1.128906 -6.546875 1.125 -6.757812 1.125 -6.96875 C 1.125 -8.925781 1.664062 -10.503906 2.75 -11.703125 C 3.53125 -12.554688 4.601562 -13.132812 5.96875 -13.4375 Z M 7.671875 -12.40625 C 7.484375 -12.4375 7.296875 -12.453125 7.109375 -12.453125 C 6.773438 -12.453125 6.445312 -12.390625 6.125 -12.265625 C 5.476562 -12.003906 4.976562 -11.445312 4.625 -10.59375 C 4.269531 -9.75 4.09375 -8.679688 4.09375 -7.390625 C 4.09375 -6.117188 4.273438 -5.09375 4.640625 -4.3125 C 4.816406 -3.957031 5.070312 -3.613281 5.40625 -3.28125 C 5.789062 -2.90625 6.15625 -2.640625 6.5 -2.484375 C 6.851562 -2.335938 7.28125 -2.265625 7.78125 -2.265625 C 8.414062 -2.265625 8.910156 -2.394531 9.265625 -2.65625 C 9.523438 -2.863281 9.738281 -3.125 9.90625 -3.4375 C 10.0625 -3.738281 10.15625 -4.050781 10.1875 -4.375 C 10.226562 -4.707031 10.257812 -5.429688 10.28125 -6.546875 L 10.28125 -6.640625 C 10.28125 -6.640625 10.28125 -6.644531 10.28125 -6.65625 L 10.28125 -6.6875 C 10.28125 -6.75 10.28125 -6.796875 10.28125 -6.828125 L 10.28125 -6.859375 C 10.28125 -6.878906 10.28125 -6.890625 10.28125 -6.890625 L 10.28125 -6.921875 C 10.28125 -6.929688 10.28125 -6.9375 10.28125 -6.9375 L 10.28125 -6.96875 C 10.28125 -6.988281 10.28125 -7 10.28125 -7 L 10.28125 -7.359375 C 10.28125 -7.359375 10.28125 -7.367188 10.28125 -7.390625 L 10.28125 -7.421875 C 10.28125 -8.785156 10.203125 -9.707031 10.046875 -10.1875 C 9.859375 -10.769531 9.554688 -11.253906 9.140625 -11.640625 C 8.722656 -12.035156 8.234375 -12.289062 7.671875 -12.40625 Z M 7.671875 -12.40625 "/></g></g></g><g fill="#000000" fill-opacity="1"><g transform="translate(347.757785, 221.946811)"><g><path d="M 6.65625 -13.53125 C 6.90625 -13.539062 7.160156 -13.546875 7.421875 -13.546875 C 7.867188 -13.546875 8.34375 -13.507812 8.84375 -13.4375 C 9.945312 -13.25 10.890625 -12.816406 11.671875 -12.140625 C 12.460938 -11.472656 13.015625 -10.644531 13.328125 -9.65625 C 13.535156 -9.007812 13.644531 -8.265625 13.65625 -7.421875 C 13.644531 -5.796875 13.378906 -4.5 12.859375 -3.53125 C 12.347656 -2.5625 11.550781 -1.796875 10.46875 -1.234375 C 9.613281 -0.804688 8.890625 -0.582031 8.296875 -0.5625 C 7.710938 -0.539062 7.382812 -0.53125 7.3125 -0.53125 C 6.320312 -0.53125 5.394531 -0.707031 4.53125 -1.0625 C 3.632812 -1.4375 2.925781 -1.941406 2.40625 -2.578125 C 2.28125 -2.722656 2.128906 -2.96875 1.953125 -3.3125 C 1.785156 -3.664062 1.664062 -3.953125 1.59375 -4.171875 C 1.425781 -4.640625 1.304688 -5.050781 1.234375 -5.40625 C 1.160156 -5.757812 1.125 -6.335938 1.125 -7.140625 C 1.125 -7.921875 1.222656 -8.617188 1.421875 -9.234375 C 1.929688 -10.992188 3.070312 -12.253906 4.84375 -13.015625 C 5.457031 -13.273438 6.0625 -13.445312 6.65625 -13.53125 Z M 7.953125 -12.71875 C 7.765625 -12.75 7.585938 -12.765625 7.421875 -12.765625 C 7.097656 -12.765625 6.789062 -12.707031 6.5 -12.59375 C 5.75 -12.320312 5.132812 -11.675781 4.65625 -10.65625 C 4.1875 -9.632812 3.953125 -8.5 3.953125 -7.25 C 3.953125 -6.050781 4.144531 -4.929688 4.53125 -3.890625 C 5 -2.660156 5.65625 -1.882812 6.5 -1.5625 C 6.695312 -1.488281 6.9375 -1.453125 7.21875 -1.453125 C 7.257812 -1.453125 7.375 -1.457031 7.5625 -1.46875 C 7.75 -1.476562 7.972656 -1.519531 8.234375 -1.59375 C 9.410156 -1.988281 10.210938 -3.210938 10.640625 -5.265625 C 10.828125 -6.066406 10.921875 -6.832031 10.921875 -7.5625 C 10.921875 -8.394531 10.800781 -9.171875 10.5625 -9.890625 C 10.3125 -10.648438 9.957031 -11.273438 9.5 -11.765625 C 9.039062 -12.265625 8.523438 -12.582031 7.953125 -12.71875 Z M 7.953125 -12.71875 "/></g></g></g><g transform="matrix(1, 0, 0, 1, 19, 18)"><g clip-path="url(#8f7776b334)"><g fill="#000000" fill-opacity="1"><g transform="translate(0.700066, 28.489942)"><g><path d="M 14.484375 -0.015625 L 0.375 -0.015625 C 0.375 -0.015625 0.425781 -0.0625 0.53125 -0.15625 C 0.632812 -0.257812 0.738281 -0.460938 0.84375 -0.765625 C 0.957031 -1.066406 1.015625 -1.515625 1.015625 -2.109375 L 1.015625 -19.640625 C 1.015625 -20.242188 0.957031 -20.6875 0.84375 -20.96875 C 0.738281 -21.25 0.632812 -21.429688 0.53125 -21.515625 C 0.425781 -21.597656 0.375 -21.640625 0.375 -21.640625 L 3.46875 -21.640625 C 3.46875 -21.640625 3.414062 -21.597656 3.3125 -21.515625 C 3.21875 -21.441406 3.117188 -21.265625 3.015625 -20.984375 C 2.910156 -20.703125 2.859375 -20.257812 2.859375 -19.65625 L 2.859375 -2.109375 C 2.859375 -1.753906 2.875 -1.453125 2.90625 -1.203125 C 2.945312 -0.960938 3 -0.765625 3.0625 -0.609375 L 7.21875 -0.609375 C 8.625 -0.609375 9.800781 -0.675781 10.75 -0.8125 C 11.695312 -0.945312 12.457031 -1.113281 13.03125 -1.3125 C 13.601562 -1.507812 14.035156 -1.71875 14.328125 -1.9375 C 14.617188 -2.15625 14.816406 -2.347656 14.921875 -2.515625 C 15.023438 -2.691406 15.082031 -2.804688 15.09375 -2.859375 C 15.09375 -2.867188 15.09375 -2.867188 15.09375 -2.859375 Z M 14.484375 -0.015625 "/></g></g></g><g fill="#000000" fill-opacity="1"><g transform="translate(16.479128, 28.489942)"><g><path d="M 8.140625 -16.15625 C 9.210938 -16.15625 10.21875 -15.941406 11.15625 -15.515625 C 12.09375 -15.085938 12.914062 -14.503906 13.625 -13.765625 C 14.332031 -13.023438 14.882812 -12.164062 15.28125 -11.1875 C 15.6875 -10.21875 15.890625 -9.175781 15.890625 -8.0625 C 15.890625 -6.945312 15.6875 -5.898438 15.28125 -4.921875 C 14.882812 -3.941406 14.332031 -3.082031 13.625 -2.34375 C 12.914062 -1.601562 12.09375 -1.023438 11.15625 -0.609375 C 10.21875 -0.191406 9.210938 0.015625 8.140625 0.015625 C 7.066406 0.015625 6.0625 -0.191406 5.125 -0.609375 C 4.1875 -1.023438 3.359375 -1.601562 2.640625 -2.34375 C 1.929688 -3.082031 1.375 -3.941406 0.96875 -4.921875 C 0.570312 -5.898438 0.375 -6.945312 0.375 -8.0625 C 0.375 -9.175781 0.570312 -10.21875 0.96875 -11.1875 C 1.375 -12.164062 1.929688 -13.023438 2.640625 -13.765625 C 3.359375 -14.503906 4.1875 -15.085938 5.125 -15.515625 C 6.0625 -15.941406 7.066406 -16.15625 8.140625 -16.15625 Z M 8.140625 -0.671875 C 8.941406 -0.671875 9.695312 -0.867188 10.40625 -1.265625 C 11.113281 -1.660156 11.738281 -2.203125 12.28125 -2.890625 C 12.820312 -3.578125 13.238281 -4.367188 13.53125 -5.265625 C 13.832031 -6.171875 13.984375 -7.128906 13.984375 -8.140625 C 13.984375 -9.148438 13.832031 -10.09375 13.53125 -10.96875 C 13.238281 -11.851562 12.820312 -12.632812 12.28125 -13.3125 C 11.738281 -13.988281 11.113281 -14.515625 10.40625 -14.890625 C 9.695312 -15.265625 8.941406 -15.453125 8.140625 -15.453125 C 7.328125 -15.453125 6.566406 -15.265625 5.859375 -14.890625 C 5.148438 -14.515625 4.523438 -13.988281 3.984375 -13.3125 C 3.453125 -12.632812 3.035156 -11.851562 2.734375 -10.96875 C 2.429688 -10.09375 2.28125 -9.148438 2.28125 -8.140625 C 2.28125 -7.128906 2.429688 -6.171875 2.734375 -5.265625 C 3.035156 -4.367188 3.453125 -3.578125 3.984375 -2.890625 C 4.523438 -2.203125 5.148438 -1.660156 5.859375 -1.265625 C 6.566406 -0.867188 7.328125 -0.671875 8.140625 -0.671875 Z M 8.140625 -0.671875 "/></g></g></g><g fill="#000000" fill-opacity="1"><g transform="translate(33.058468, 28.489942)"><g><path d="M 8.953125 -1.546875 C 9.210938 -1.546875 9.546875 -1.523438 9.953125 -1.484375 C 10.359375 -1.441406 10.800781 -1.363281 11.28125 -1.25 C 11.757812 -1.132812 12.226562 -0.96875 12.6875 -0.75 C 13.15625 -0.53125 13.582031 -0.25 13.96875 0.09375 C 14.351562 0.4375 14.660156 0.851562 14.890625 1.34375 C 15.128906 1.832031 15.25 2.421875 15.25 3.109375 C 15.25 4.171875 14.9375 5.097656 14.3125 5.890625 C 13.695312 6.679688 12.816406 7.296875 11.671875 7.734375 C 10.535156 8.171875 9.171875 8.390625 7.578125 8.390625 C 6.378906 8.390625 5.34375 8.269531 4.46875 8.03125 C 3.601562 7.789062 2.878906 7.460938 2.296875 7.046875 C 1.722656 6.640625 1.273438 6.191406 0.953125 5.703125 C 0.628906 5.210938 0.421875 4.710938 0.328125 4.203125 C 0.234375 3.691406 0.234375 3.207031 0.328125 2.75 C 0.429688 2.300781 0.613281 1.914062 0.875 1.59375 C 1.132812 1.28125 1.460938 1.066406 1.859375 0.953125 C 2.253906 0.835938 2.703125 0.867188 3.203125 1.046875 C 2.960938 1.097656 2.742188 1.257812 2.546875 1.53125 C 2.359375 1.8125 2.210938 2.15625 2.109375 2.5625 C 2.015625 2.96875 1.984375 3.40625 2.015625 3.875 C 2.054688 4.351562 2.1875 4.820312 2.40625 5.28125 C 2.625 5.738281 2.953125 6.15625 3.390625 6.53125 C 3.828125 6.914062 4.394531 7.222656 5.09375 7.453125 C 5.800781 7.679688 6.660156 7.796875 7.671875 7.796875 C 8.785156 7.796875 9.753906 7.609375 10.578125 7.234375 C 11.410156 6.859375 12.054688 6.328125 12.515625 5.640625 C 12.984375 4.953125 13.21875 4.148438 13.21875 3.234375 C 13.21875 2.304688 12.992188 1.523438 12.546875 0.890625 C 12.097656 0.265625 11.5 -0.203125 10.75 -0.515625 C 10 -0.835938 9.160156 -0.984375 8.234375 -0.953125 C 7.597656 -0.929688 7.003906 -0.847656 6.453125 -0.703125 C 5.898438 -0.554688 5.382812 -0.390625 4.90625 -0.203125 C 4.425781 -0.015625 3.953125 0.144531 3.484375 0.28125 C 3.023438 0.425781 2.546875 0.5 2.046875 0.5 C 1.460938 0.5 1 0.335938 0.65625 0.015625 C 0.320312 -0.296875 0.15625 -0.671875 0.15625 -1.109375 C 0.15625 -1.484375 0.25 -1.800781 0.4375 -2.0625 C 0.632812 -2.332031 0.890625 -2.550781 1.203125 -2.71875 C 1.523438 -2.894531 1.875 -3.023438 2.25 -3.109375 C 2.625 -3.203125 2.988281 -3.25 3.34375 -3.25 C 2.476562 -3.894531 1.785156 -4.71875 1.265625 -5.71875 C 0.742188 -6.726562 0.484375 -7.828125 0.484375 -9.015625 C 0.484375 -9.992188 0.660156 -10.914062 1.015625 -11.78125 C 1.378906 -12.644531 1.878906 -13.398438 2.515625 -14.046875 C 3.148438 -14.703125 3.882812 -15.21875 4.71875 -15.59375 C 5.550781 -15.96875 6.4375 -16.15625 7.375 -16.15625 C 8.050781 -16.15625 8.695312 -16.054688 9.3125 -15.859375 C 9.9375 -15.660156 10.515625 -15.382812 11.046875 -15.03125 C 11.171875 -15.300781 11.320312 -15.566406 11.5 -15.828125 C 11.675781 -16.097656 11.890625 -16.332031 12.140625 -16.53125 C 12.398438 -16.726562 12.695312 -16.863281 13.03125 -16.9375 C 13.363281 -17.007812 13.742188 -16.976562 14.171875 -16.84375 C 14.441406 -16.757812 14.625 -16.632812 14.71875 -16.46875 C 14.820312 -16.300781 14.859375 -16.128906 14.828125 -15.953125 C 14.804688 -15.773438 14.734375 -15.613281 14.609375 -15.46875 C 14.484375 -15.320312 14.332031 -15.222656 14.15625 -15.171875 C 13.976562 -15.117188 13.785156 -15.148438 13.578125 -15.265625 C 13.347656 -15.390625 13.085938 -15.484375 12.796875 -15.546875 C 12.503906 -15.617188 12.21875 -15.609375 11.9375 -15.515625 C 11.664062 -15.429688 11.425781 -15.222656 11.21875 -14.890625 C 11.820312 -14.472656 12.347656 -13.960938 12.796875 -13.359375 C 13.253906 -12.753906 13.601562 -12.082031 13.84375 -11.34375 C 14.09375 -10.601562 14.21875 -9.828125 14.21875 -9.015625 C 14.21875 -8.023438 14.039062 -7.097656 13.6875 -6.234375 C 13.332031 -5.378906 12.84375 -4.625 12.21875 -3.96875 C 11.59375 -3.3125 10.863281 -2.800781 10.03125 -2.4375 C 9.207031 -2.070312 8.320312 -1.890625 7.375 -1.890625 C 6.675781 -1.890625 6 -1.992188 5.34375 -2.203125 C 4.6875 -2.421875 4.082031 -2.71875 3.53125 -3.09375 C 3.207031 -3.0625 2.878906 -2.988281 2.546875 -2.875 C 2.222656 -2.769531 1.953125 -2.613281 1.734375 -2.40625 C 1.515625 -2.195312 1.40625 -1.925781 1.40625 -1.59375 C 1.40625 -1.34375 1.488281 -1.101562 1.65625 -0.875 C 1.832031 -0.644531 2.132812 -0.53125 2.5625 -0.53125 C 3.070312 -0.53125 3.5625 -0.578125 4.03125 -0.671875 C 4.5 -0.773438 4.984375 -0.894531 5.484375 -1.03125 C 5.992188 -1.164062 6.53125 -1.285156 7.09375 -1.390625 C 7.65625 -1.492188 8.273438 -1.546875 8.953125 -1.546875 Z M 2.328125 -9.09375 C 2.328125 -8.195312 2.453125 -7.347656 2.703125 -6.546875 C 2.960938 -5.753906 3.320312 -5.054688 3.78125 -4.453125 C 4.238281 -3.847656 4.773438 -3.367188 5.390625 -3.015625 C 6.003906 -2.671875 6.664062 -2.5 7.375 -2.5 C 8.09375 -2.5 8.753906 -2.664062 9.359375 -3 C 9.960938 -3.34375 10.488281 -3.804688 10.9375 -4.390625 C 11.394531 -4.984375 11.75 -5.671875 12 -6.453125 C 12.25 -7.242188 12.375 -8.082031 12.375 -8.96875 C 12.375 -9.863281 12.25 -10.707031 12 -11.5 C 11.75 -12.289062 11.394531 -12.988281 10.9375 -13.59375 C 10.488281 -14.195312 9.960938 -14.671875 9.359375 -15.015625 C 8.753906 -15.367188 8.09375 -15.546875 7.375 -15.546875 C 6.664062 -15.546875 6.003906 -15.375 5.390625 -15.03125 C 4.773438 -14.695312 4.238281 -14.234375 3.78125 -13.640625 C 3.320312 -13.054688 2.960938 -12.375 2.703125 -11.59375 C 2.453125 -10.820312 2.328125 -9.988281 2.328125 -9.09375 Z M 2.328125 -9.09375 "/></g></g></g><g fill="#000000" fill-opacity="1"><g transform="translate(48.112752, 28.489942)"><g><path d="M 8.140625 -16.15625 C 9.210938 -16.15625 10.21875 -15.941406 11.15625 -15.515625 C 12.09375 -15.085938 12.914062 -14.503906 13.625 -13.765625 C 14.332031 -13.023438 14.882812 -12.164062 15.28125 -11.1875 C 15.6875 -10.21875 15.890625 -9.175781 15.890625 -8.0625 C 15.890625 -6.945312 15.6875 -5.898438 15.28125 -4.921875 C 14.882812 -3.941406 14.332031 -3.082031 13.625 -2.34375 C 12.914062 -1.601562 12.09375 -1.023438 11.15625 -0.609375 C 10.21875 -0.191406 9.210938 0.015625 8.140625 0.015625 C 7.066406 0.015625 6.0625 -0.191406 5.125 -0.609375 C 4.1875 -1.023438 3.359375 -1.601562 2.640625 -2.34375 C 1.929688 -3.082031 1.375 -3.941406 0.96875 -4.921875 C 0.570312 -5.898438 0.375 -6.945312 0.375 -8.0625 C 0.375 -9.175781 0.570312 -10.21875 0.96875 -11.1875 C 1.375 -12.164062 1.929688 -13.023438 2.640625 -13.765625 C 3.359375 -14.503906 4.1875 -15.085938 5.125 -15.515625 C 6.0625 -15.941406 7.066406 -16.15625 8.140625 -16.15625 Z M 8.140625 -0.671875 C 8.941406 -0.671875 9.695312 -0.867188 10.40625 -1.265625 C 11.113281 -1.660156 11.738281 -2.203125 12.28125 -2.890625 C 12.820312 -3.578125 13.238281 -4.367188 13.53125 -5.265625 C 13.832031 -6.171875 13.984375 -7.128906 13.984375 -8.140625 C 13.984375 -9.148438 13.832031 -10.09375 13.53125 -10.96875 C 13.238281 -11.851562 12.820312 -12.632812 12.28125 -13.3125 C 11.738281 -13.988281 11.113281 -14.515625 10.40625 -14.890625 C 9.695312 -15.265625 8.941406 -15.453125 8.140625 -15.453125 C 7.328125 -15.453125 6.566406 -15.265625 5.859375 -14.890625 C 5.148438 -14.515625 4.523438 -13.988281 3.984375 -13.3125 C 3.453125 -12.632812 3.035156 -11.851562 2.734375 -10.96875 C 2.429688 -10.09375 2.28125 -9.148438 2.28125 -8.140625 C 2.28125 -7.128906 2.429688 -6.171875 2.734375 -5.265625 C 3.035156 -4.367188 3.453125 -3.578125 3.984375 -2.890625 C 4.523438 -2.203125 5.148438 -1.660156 5.859375 -1.265625 C 6.566406 -0.867188 7.328125 -0.671875 8.140625 -0.671875 Z M 8.140625 -0.671875 "/></g></g></g><g fill="#000000" fill-opacity="1"><g transform="translate(64.692094, 28.489942)"><g/></g></g><g fill="#000000" fill-opacity="1"><g transform="translate(72.543875, 28.489942)"><g><path d="M 2.53125 -16.15625 C 2.53125 -17.226562 2.726562 -18.175781 3.125 -19 C 3.53125 -19.820312 4.109375 -20.46875 4.859375 -20.9375 C 5.617188 -21.414062 6.53125 -21.65625 7.59375 -21.65625 C 8.457031 -21.65625 9.195312 -21.507812 9.8125 -21.21875 C 10.425781 -20.9375 10.84375 -20.539062 11.0625 -20.03125 C 11.175781 -19.789062 11.164062 -19.585938 11.03125 -19.421875 C 10.894531 -19.253906 10.703125 -19.140625 10.453125 -19.078125 C 10.210938 -19.023438 9.976562 -19.035156 9.75 -19.109375 C 9.519531 -19.179688 9.359375 -19.320312 9.265625 -19.53125 C 9.179688 -19.726562 9.066406 -19.941406 8.921875 -20.171875 C 8.785156 -20.398438 8.59375 -20.597656 8.34375 -20.765625 C 8.09375 -20.941406 7.757812 -21.039062 7.34375 -21.0625 C 7.15625 -21.070312 6.929688 -21.039062 6.671875 -20.96875 C 6.421875 -20.90625 6.160156 -20.78125 5.890625 -20.59375 C 5.628906 -20.40625 5.378906 -20.128906 5.140625 -19.765625 C 4.910156 -19.410156 4.722656 -18.9375 4.578125 -18.34375 C 4.429688 -17.75 4.359375 -17.019531 4.359375 -16.15625 L 8.046875 -16.15625 L 8.046875 -15.5625 L 4.359375 -15.5625 L 4.359375 -2 C 4.359375 -1.40625 4.410156 -0.960938 4.515625 -0.671875 C 4.617188 -0.378906 4.722656 -0.191406 4.828125 -0.109375 C 4.941406 -0.0351562 5 0 5 0 L 1.90625 0 C 1.90625 0 1.957031 -0.0390625 2.0625 -0.125 C 2.164062 -0.207031 2.269531 -0.390625 2.375 -0.671875 C 2.476562 -0.960938 2.53125 -1.40625 2.53125 -2 L 2.53125 -15.5625 L 0.375 -15.5625 L 0.375 -16.15625 Z M 2.53125 -16.15625 "/></g></g></g><g fill="#000000" fill-opacity="1"><g transform="translate(81.286531, 28.489942)"><g><path d="M 8.140625 -16.15625 C 9.210938 -16.15625 10.21875 -15.941406 11.15625 -15.515625 C 12.09375 -15.085938 12.914062 -14.503906 13.625 -13.765625 C 14.332031 -13.023438 14.882812 -12.164062 15.28125 -11.1875 C 15.6875 -10.21875 15.890625 -9.175781 15.890625 -8.0625 C 15.890625 -6.945312 15.6875 -5.898438 15.28125 -4.921875 C 14.882812 -3.941406 14.332031 -3.082031 13.625 -2.34375 C 12.914062 -1.601562 12.09375 -1.023438 11.15625 -0.609375 C 10.21875 -0.191406 9.210938 0.015625 8.140625 0.015625 C 7.066406 0.015625 6.0625 -0.191406 5.125 -0.609375 C 4.1875 -1.023438 3.359375 -1.601562 2.640625 -2.34375 C 1.929688 -3.082031 1.375 -3.941406 0.96875 -4.921875 C 0.570312 -5.898438 0.375 -6.945312 0.375 -8.0625 C 0.375 -9.175781 0.570312 -10.21875 0.96875 -11.1875 C 1.375 -12.164062 1.929688 -13.023438 2.640625 -13.765625 C 3.359375 -14.503906 4.1875 -15.085938 5.125 -15.515625 C 6.0625 -15.941406 7.066406 -16.15625 8.140625 -16.15625 Z M 8.140625 -0.671875 C 8.941406 -0.671875 9.695312 -0.867188 10.40625 -1.265625 C 11.113281 -1.660156 11.738281 -2.203125 12.28125 -2.890625 C 12.820312 -3.578125 13.238281 -4.367188 13.53125 -5.265625 C 13.832031 -6.171875 13.984375 -7.128906 13.984375 -8.140625 C 13.984375 -9.148438 13.832031 -10.09375 13.53125 -10.96875 C 13.238281 -11.851562 12.820312 -12.632812 12.28125 -13.3125 C 11.738281 -13.988281 11.113281 -14.515625 10.40625 -14.890625 C 9.695312 -15.265625 8.941406 -15.453125 8.140625 -15.453125 C 7.328125 -15.453125 6.566406 -15.265625 5.859375 -14.890625 C 5.148438 -14.515625 4.523438 -13.988281 3.984375 -13.3125 C 3.453125 -12.632812 3.035156 -11.851562 2.734375 -10.96875 C 2.429688 -10.09375 2.28125 -9.148438 2.28125 -8.140625 C 2.28125 -7.128906 2.429688 -6.171875 2.734375 -5.265625 C 3.035156 -4.367188 3.453125 -3.578125 3.984375 -2.890625 C 4.523438 -2.203125 5.148438 -1.660156 5.859375 -1.265625 C 6.566406 -0.867188 7.328125 -0.671875 8.140625 -0.671875 Z M 8.140625 -0.671875 "/></g></g></g><g fill="#000000" fill-opacity="1"><g transform="translate(97.865874, 28.489942)"><g><path d="M 2.921875 -11.640625 C 2.953125 -12.472656 3.128906 -13.1875 3.453125 -13.78125 C 3.773438 -14.375 4.195312 -14.851562 4.71875 -15.21875 C 5.238281 -15.582031 5.804688 -15.835938 6.421875 -15.984375 C 7.035156 -16.128906 7.660156 -16.171875 8.296875 -16.109375 C 8.941406 -16.046875 9.550781 -15.878906 10.125 -15.609375 C 10.695312 -15.347656 11.191406 -14.988281 11.609375 -14.53125 C 12.023438 -14.070312 12.316406 -13.515625 12.484375 -12.859375 L 10.859375 -12.46875 C 10.648438 -13.1875 10.332031 -13.765625 9.90625 -14.203125 C 9.488281 -14.640625 9.007812 -14.945312 8.46875 -15.125 C 7.925781 -15.300781 7.363281 -15.351562 6.78125 -15.28125 C 6.195312 -15.21875 5.632812 -15.035156 5.09375 -14.734375 C 4.5625 -14.429688 4.101562 -14.019531 3.71875 -13.5 C 3.34375 -12.976562 3.078125 -12.359375 2.921875 -11.640625 Z M 0.375 0 C 0.375 0 0.425781 -0.0390625 0.53125 -0.125 C 0.632812 -0.207031 0.738281 -0.390625 0.84375 -0.671875 C 0.957031 -0.960938 1.015625 -1.40625 1.015625 -2 L 1.015625 -13.109375 C 1.015625 -13.710938 0.957031 -14.160156 0.84375 -14.453125 C 0.738281 -14.753906 0.632812 -14.957031 0.53125 -15.0625 C 0.425781 -15.164062 0.375 -15.21875 0.375 -15.21875 L 2.84375 -16.171875 L 2.859375 -2 C 2.859375 -1.40625 2.910156 -0.960938 3.015625 -0.671875 C 3.117188 -0.378906 3.21875 -0.191406 3.3125 -0.109375 C 3.414062 -0.0351562 3.46875 0 3.46875 0 Z M 0.375 0 "/></g></g></g><g fill="#000000" fill-opacity="1"><g transform="translate(111.032704, 28.489942)"><g><path d="M 2.859375 -16.15625 L 2.859375 -1.78125 C 2.859375 -1.300781 2.765625 -0.929688 2.578125 -0.671875 C 2.390625 -0.410156 2.109375 -0.234375 1.734375 -0.140625 C 1.367188 -0.046875 0.914062 0 0.375 0 C 0.375 0 0.425781 -0.0390625 0.53125 -0.125 C 0.632812 -0.207031 0.738281 -0.390625 0.84375 -0.671875 C 0.957031 -0.960938 1.015625 -1.40625 1.015625 -2 L 1.015625 -13.09375 C 1.015625 -13.6875 0.960938 -14.132812 0.859375 -14.4375 C 0.753906 -14.738281 0.648438 -14.941406 0.546875 -15.046875 C 0.441406 -15.148438 0.390625 -15.203125 0.390625 -15.203125 Z M 18.09375 0 C 18.09375 0 18.144531 -0.0390625 18.25 -0.125 C 18.363281 -0.207031 18.472656 -0.390625 18.578125 -0.671875 C 18.679688 -0.960938 18.734375 -1.40625 18.734375 -2 C 18.734375 -2 18.734375 -2.035156 18.734375 -2.109375 C 18.734375 -2.179688 18.734375 -2.328125 18.734375 -2.546875 C 18.734375 -2.773438 18.734375 -3.113281 18.734375 -3.5625 C 18.734375 -4.007812 18.734375 -4.613281 18.734375 -5.375 C 18.734375 -6.132812 18.734375 -7.082031 18.734375 -8.21875 C 18.734375 -9.363281 18.734375 -10.734375 18.734375 -12.328125 C 18.734375 -13.066406 18.585938 -13.671875 18.296875 -14.140625 C 18.003906 -14.609375 17.625 -14.941406 17.15625 -15.140625 C 16.6875 -15.347656 16.175781 -15.425781 15.625 -15.375 C 15.082031 -15.332031 14.550781 -15.160156 14.03125 -14.859375 C 13.507812 -14.566406 13.050781 -14.148438 12.65625 -13.609375 C 12.257812 -13.078125 11.976562 -12.421875 11.8125 -11.640625 C 11.851562 -12.578125 12.039062 -13.359375 12.375 -13.984375 C 12.707031 -14.609375 13.132812 -15.09375 13.65625 -15.4375 C 14.175781 -15.78125 14.742188 -15.992188 15.359375 -16.078125 C 15.972656 -16.171875 16.582031 -16.144531 17.1875 -16 C 17.800781 -15.863281 18.363281 -15.625 18.875 -15.28125 C 19.382812 -14.9375 19.789062 -14.5 20.09375 -13.96875 C 20.40625 -13.445312 20.5625 -12.851562 20.5625 -12.1875 L 20.578125 -2 C 20.578125 -1.40625 20.628906 -0.960938 20.734375 -0.671875 C 20.835938 -0.378906 20.9375 -0.191406 21.03125 -0.109375 C 21.132812 -0.0351562 21.1875 0 21.1875 0 Z M 9.234375 0 C 9.234375 0 9.285156 -0.0390625 9.390625 -0.125 C 9.492188 -0.207031 9.597656 -0.390625 9.703125 -0.671875 C 9.816406 -0.960938 9.875 -1.40625 9.875 -2 C 9.875 -2 9.875 -2.035156 9.875 -2.109375 C 9.875 -2.179688 9.875 -2.328125 9.875 -2.546875 C 9.875 -2.773438 9.875 -3.113281 9.875 -3.5625 C 9.875 -4.007812 9.875 -4.613281 9.875 -5.375 C 9.875 -6.132812 9.875 -7.082031 9.875 -8.21875 C 9.875 -9.363281 9.875 -10.734375 9.875 -12.328125 C 9.875 -13.066406 9.726562 -13.671875 9.4375 -14.140625 C 9.144531 -14.609375 8.765625 -14.941406 8.296875 -15.140625 C 7.828125 -15.347656 7.316406 -15.425781 6.765625 -15.375 C 6.222656 -15.332031 5.691406 -15.160156 5.171875 -14.859375 C 4.648438 -14.566406 4.191406 -14.148438 3.796875 -13.609375 C 3.398438 -13.078125 3.117188 -12.421875 2.953125 -11.640625 C 2.992188 -12.578125 3.179688 -13.359375 3.515625 -13.984375 C 3.847656 -14.609375 4.273438 -15.09375 4.796875 -15.4375 C 5.316406 -15.78125 5.882812 -15.992188 6.5 -16.078125 C 7.113281 -16.171875 7.722656 -16.144531 8.328125 -16 C 8.941406 -15.863281 9.503906 -15.625 10.015625 -15.28125 C 10.523438 -14.9375 10.929688 -14.5 11.234375 -13.96875 C 11.546875 -13.445312 11.703125 -12.851562 11.703125 -12.1875 L 11.703125 -2 C 11.703125 -1.40625 11.753906 -0.960938 11.859375 -0.671875 C 11.960938 -0.378906 12.066406 -0.191406 12.171875 -0.109375 C 12.273438 -0.0351562 12.328125 0 12.328125 0 Z M 9.234375 0 "/></g></g></g><g fill="#000000" fill-opacity="1"><g transform="translate(132.912004, 28.489942)"><g><path d="M 12.71875 -6.71875 L 12.71875 -10.8125 C 12.71875 -11.425781 12.675781 -12.019531 12.59375 -12.59375 C 12.507812 -13.175781 12.332031 -13.695312 12.0625 -14.15625 C 11.800781 -14.625 11.398438 -14.992188 10.859375 -15.265625 C 10.316406 -15.535156 9.597656 -15.671875 8.703125 -15.671875 C 7.828125 -15.671875 7.03125 -15.484375 6.3125 -15.109375 C 5.59375 -14.742188 4.984375 -14.226562 4.484375 -13.5625 C 3.992188 -12.90625 3.640625 -12.132812 3.421875 -11.25 L 1.8125 -12.3125 C 2.269531 -13.28125 2.863281 -14.039062 3.59375 -14.59375 C 4.320312 -15.15625 5.128906 -15.554688 6.015625 -15.796875 C 6.898438 -16.046875 7.800781 -16.171875 8.71875 -16.171875 C 9.738281 -16.171875 10.59375 -16.070312 11.28125 -15.875 C 11.976562 -15.6875 12.539062 -15.421875 12.96875 -15.078125 C 13.40625 -14.734375 13.738281 -14.335938 13.96875 -13.890625 C 14.207031 -13.441406 14.363281 -12.957031 14.4375 -12.4375 C 14.519531 -11.914062 14.5625 -11.378906 14.5625 -10.828125 L 14.5625 -2 C 14.5625 -1.40625 14.613281 -0.960938 14.71875 -0.671875 C 14.820312 -0.378906 14.925781 -0.191406 15.03125 -0.109375 C 15.132812 -0.0351562 15.1875 0 15.1875 0 C 14.75 0 14.34375 -0.0351562 13.96875 -0.109375 C 13.601562 -0.191406 13.300781 -0.378906 13.0625 -0.671875 C 12.832031 -0.960938 12.71875 -1.40625 12.71875 -2 L 12.71875 -4.03125 C 12.5 -3.53125 12.21875 -3.035156 11.875 -2.546875 C 11.53125 -2.066406 11.113281 -1.632812 10.625 -1.25 C 10.144531 -0.863281 9.578125 -0.554688 8.921875 -0.328125 C 8.265625 -0.109375 7.515625 0 6.671875 0 C 5.679688 0 4.828125 -0.101562 4.109375 -0.3125 C 3.390625 -0.53125 2.789062 -0.8125 2.3125 -1.15625 C 1.832031 -1.507812 1.445312 -1.894531 1.15625 -2.3125 C 0.875 -2.726562 0.671875 -3.140625 0.546875 -3.546875 C 0.429688 -3.960938 0.375 -4.332031 0.375 -4.65625 C 0.375 -5.5625 0.53125 -6.332031 0.84375 -6.96875 C 1.15625 -7.613281 1.570312 -8.144531 2.09375 -8.5625 C 2.625 -8.988281 3.226562 -9.332031 3.90625 -9.59375 C 4.582031 -9.851562 5.285156 -10.054688 6.015625 -10.203125 C 6.753906 -10.359375 7.476562 -10.476562 8.1875 -10.5625 C 8.90625 -10.65625 9.566406 -10.738281 10.171875 -10.8125 C 10.785156 -10.894531 11.304688 -11 11.734375 -11.125 C 12.171875 -11.25 12.472656 -11.421875 12.640625 -11.640625 C 12.554688 -11.421875 12.347656 -11.238281 12.015625 -11.09375 C 11.679688 -10.945312 11.257812 -10.816406 10.75 -10.703125 C 10.238281 -10.597656 9.679688 -10.488281 9.078125 -10.375 C 8.484375 -10.257812 7.867188 -10.117188 7.234375 -9.953125 C 6.597656 -9.796875 5.984375 -9.59375 5.390625 -9.34375 C 4.804688 -9.101562 4.28125 -8.800781 3.8125 -8.4375 C 3.34375 -8.070312 2.972656 -7.628906 2.703125 -7.109375 C 2.429688 -6.585938 2.296875 -5.960938 2.296875 -5.234375 C 2.296875 -3.773438 2.722656 -2.679688 3.578125 -1.953125 C 4.441406 -1.222656 5.601562 -0.859375 7.0625 -0.859375 C 7.96875 -0.859375 8.769531 -1.019531 9.46875 -1.34375 C 10.175781 -1.664062 10.769531 -2.097656 11.25 -2.640625 C 11.738281 -3.191406 12.101562 -3.816406 12.34375 -4.515625 C 12.59375 -5.222656 12.71875 -5.957031 12.71875 -6.71875 Z M 12.71875 -6.71875 "/></g></g></g><g fill="#000000" fill-opacity="1"><g transform="translate(148.781653, 28.489942)"><g><path d="M 1.015625 -20.03125 C 1.015625 -20.632812 0.957031 -21.085938 0.84375 -21.390625 C 0.738281 -21.691406 0.632812 -21.890625 0.53125 -21.984375 C 0.425781 -22.085938 0.375 -22.140625 0.375 -22.140625 L 2.84375 -23.09375 L 2.859375 -2 C 2.859375 -1.40625 2.910156 -0.960938 3.015625 -0.671875 C 3.117188 -0.378906 3.21875 -0.191406 3.3125 -0.109375 C 3.414062 -0.0351562 3.46875 0 3.46875 0 L 0.375 0 C 0.375 0 0.425781 -0.0390625 0.53125 -0.125 C 0.632812 -0.207031 0.738281 -0.390625 0.84375 -0.671875 C 0.957031 -0.960938 1.015625 -1.40625 1.015625 -2 Z M 1.015625 -20.03125 "/></g></g></g></g></g></svg>