<?xml version="1.0" standalone="no"?>
<!DOCTYPE svg PUBLIC "-//W3C//DTD SVG 20010904//EN"
 "http://www.w3.org/TR/2001/REC-SVG-20010904/DTD/svg10.dtd">
<svg version="1.0" xmlns="http://www.w3.org/2000/svg"
 width="371.000000pt" height="117.000000pt" viewBox="0 0 371.000000 117.000000"
 preserveAspectRatio="xMidYMid meet">

<g transform="translate(0.000000,117.000000) scale(0.100000,-0.100000)"
fill="#000000" stroke="none">
<path d="M307 908 c-4 -24 -11 -88 -18 -143 -8 -69 -16 -104 -27 -112 -13 -11
-9 -13 29 -12 24 0 38 3 32 6 -14 5 -16 88 -4 163 l7 45 52 -102 c29 -57 56
-103 62 -103 5 0 33 48 61 108 l53 107 7 -60 c4 -33 7 -84 8 -112 l1 -53 43 1
c23 1 34 3 25 6 -21 5 -24 15 -38 133 -6 52 -13 113 -17 135 l-6 40 -65 -130
-65 -130 -63 128 c-35 70 -66 127 -68 127 -2 0 -6 -19 -9 -42z"/>
<path d="M976 940 c-65 -20 -114 -98 -103 -166 14 -87 76 -135 175 -136 95 -1
102 4 102 71 0 31 5 62 12 69 9 9 2 12 -32 11 -25 0 -39 -3 -32 -6 8 -3 12
-26 12 -63 l0 -59 -34 -6 c-24 -5 -48 -1 -80 14 -59 26 -91 88 -83 160 8 67
48 101 123 101 63 0 91 -12 104 -43 7 -19 9 -17 9 14 1 36 0 36 -45 43 -59 8
-91 7 -128 -4z"/>
<path d="M2877 943 c-4 -3 -7 -70 -7 -149 0 -104 -3 -144 -12 -147 -7 -3 7 -6
31 -6 38 -1 42 1 28 12 -13 9 -17 34 -19 115 -2 56 -1 102 2 102 3 0 57 -52
120 -115 63 -63 118 -115 121 -115 4 0 8 64 8 142 1 78 4 145 7 150 3 4 -10 8
-28 8 -19 0 -28 -4 -21 -8 12 -8 24 -222 11 -222 -3 0 -58 54 -120 120 -63 66
-118 117 -121 113z"/>
<path d="M3290 809 c-33 -84 -62 -146 -74 -155 -19 -13 -17 -14 24 -14 31 0
40 3 31 9 -12 8 -12 16 3 55 l18 46 52 0 53 0 18 -55 c19 -55 19 -55 60 -54
32 0 36 2 19 9 -12 4 -24 14 -27 22 -89 217 -110 264 -116 271 -4 4 -32 -56
-61 -134z m73 24 c9 -27 17 -51 17 -55 0 -5 -18 -8 -41 -8 -31 0 -40 3 -36 14
3 8 11 32 18 55 7 23 15 41 19 41 3 0 14 -21 23 -47z"/>
<path d="M718 933 c9 -3 12 -42 12 -143 0 -101 -3 -140 -12 -143 -7 -3 12 -5
42 -5 30 0 48 2 40 5 -27 10 -30 26 -30 155 0 92 3 128 13 131 6 3 -8 5 -33 5
-25 0 -39 -2 -32 -5z"/>
<path d="M1238 933 c8 -3 12 -31 12 -86 1 -162 28 -207 129 -207 51 0 61 3 87
31 28 29 29 34 32 142 3 70 8 115 15 119 7 4 -6 7 -28 7 -22 0 -34 -3 -27 -6
8 -3 12 -36 12 -115 0 -108 0 -110 -29 -139 -33 -32 -58 -36 -101 -14 -20 10
-32 27 -39 53 -15 52 -14 195 1 210 9 9 2 12 -32 11 -25 0 -39 -3 -32 -6z"/>
<path d="M1608 933 c17 -7 17 -264 0 -281 -9 -9 7 -12 74 -12 85 0 86 0 91 27
4 24 4 26 -8 10 -8 -12 -26 -17 -59 -17 l-46 0 0 65 0 65 40 0 c24 0 40 -5 40
-12 0 -15 13 -1 16 17 2 12 -9 15 -47 15 l-49 0 0 61 0 62 41 -6 c23 -3 46
-11 50 -19 6 -9 9 -7 9 10 0 21 -3 22 -82 21 -46 0 -77 -3 -70 -6z"/>
<path d="M1868 933 c17 -7 17 -264 0 -281 -9 -9 8 -12 79 -12 74 0 92 3 97 16
11 28 6 40 -8 21 -11 -14 -25 -17 -63 -15 l-48 3 -3 129 c-2 97 1 131 10 138
8 4 -5 7 -32 7 -25 0 -39 -3 -32 -6z"/>
<path d="M2275 923 c14 -14 16 -35 13 -140 -2 -96 -6 -126 -18 -133 -10 -7 16
-9 80 -8 93 3 95 3 98 28 2 22 1 23 -8 8 -8 -13 -24 -18 -59 -18 -42 0 -49 3
-55 23 -11 42 -7 232 6 245 9 9 3 12 -31 12 -40 0 -41 -1 -26 -17z"/>
<path d="M2510 921 c5 -11 10 -61 10 -111 0 -138 23 -170 122 -170 93 1 118
37 118 170 0 50 5 100 10 111 10 17 7 19 -27 19 -25 0 -33 -3 -25 -9 18 -11
18 -212 0 -241 -26 -41 -88 -49 -131 -17 -32 23 -50 183 -27 241 9 25 8 26
-26 26 -31 0 -34 -2 -24 -19z"/>
<path d="M2316 515 c-10 -26 -7 -153 4 -160 5 -3 10 21 12 57 l3 63 39 -62
c21 -35 43 -63 47 -63 5 0 9 41 9 92 0 50 -3 88 -7 84 -8 -8 -9 -14 -12 -81
l-1 -40 -36 55 c-48 72 -50 74 -58 55z"/>
<path d="M2910 511 c-16 -30 -12 -36 10 -16 21 19 26 35 10 35 -5 0 -14 -9
-20 -19z"/>
<path d="M2992 443 c2 -58 7 -88 16 -91 9 -3 12 19 12 87 0 75 -3 91 -15 91
-13 0 -15 -14 -13 -87z"/>
<path d="M2800 511 c0 -6 5 -13 10 -16 6 -3 10 1 10 9 0 9 -4 16 -10 16 -5 0
-10 -4 -10 -9z"/>
<path d="M2610 485 c0 -8 -6 -15 -12 -15 -10 0 -10 -2 -1 -8 6 -4 13 -30 15
-57 2 -39 7 -51 22 -53 10 -2 23 2 30 9 8 9 7 11 -6 6 -16 -6 -18 0 -18 42 0
30 5 51 13 54 10 4 10 6 0 6 -7 1 -13 8 -13 16 0 8 -7 15 -15 15 -8 0 -15 -7
-15 -15z"/>
<path d="M2460 429 c0 -22 5 -49 10 -60 11 -20 54 -26 65 -9 4 6 -5 10 -19 10
-24 0 -26 3 -26 50 0 38 -4 50 -15 50 -11 0 -15 -11 -15 -41z"/>
<path d="M2548 423 c-5 -52 -1 -73 13 -73 5 0 9 27 9 60 0 71 -16 80 -22 13z"/>
<path d="M2690 410 c0 -33 4 -60 9 -60 10 0 21 87 14 107 -12 31 -23 9 -23
-47z"/>
<path d="M2725 460 c-3 -5 1 -10 9 -10 9 0 16 -7 16 -15 0 -8 4 -15 8 -15 17
0 21 13 11 31 -11 21 -34 25 -44 9z"/>
<path d="M2800 410 c0 -33 4 -60 10 -60 6 0 10 27 10 60 0 33 -4 60 -10 60 -6
0 -10 -27 -10 -60z"/>
<path d="M2866 448 c-32 -46 -7 -98 46 -98 33 0 51 23 51 62 0 55 -67 79 -97
36z m62 0 c29 -29 3 -98 -33 -84 -15 5 -22 76 -8 89 10 11 28 8 41 -5z"/>
<path d="M3067 452 c-33 -37 -9 -102 37 -102 38 0 56 19 56 60 0 29 -5 42 -19
50 -29 15 -56 12 -74 -8z m67 -14 c15 -25 -4 -73 -29 -73 -15 0 -21 8 -23 33
-2 19 -1 41 2 49 7 18 35 13 50 -9z"/>
<path d="M3208 459 c-27 -15 -25 -85 3 -100 12 -6 30 -9 40 -6 23 6 25 -15 3
-34 -14 -11 -18 -11 -29 4 -13 18 -35 23 -35 7 0 -13 34 -30 59 -30 33 0 49
35 47 103 l-1 62 -35 2 c-19 1 -43 -2 -52 -8z m51 -13 c20 -24 10 -70 -16 -74
-27 -4 -41 35 -23 67 13 25 23 26 39 7z"/>
<path d="M3341 451 c-12 -12 -21 -30 -21 -41 0 -11 9 -29 21 -41 28 -28 69
-22 89 14 13 24 13 30 0 55 -20 35 -61 41 -89 13z m63 -7 c15 -40 0 -84 -31
-84 -16 0 -27 43 -19 75 7 28 40 34 50 9z"/>
<path d="M257 434 c-4 -4 -4 -11 -1 -15 3 -5 437 -9 965 -9 846 0 959 2 959
15 0 13 -113 15 -958 15 -527 0 -962 -3 -965 -6z"/>
</g>
</svg>
